<?xml version="1.0" encoding="utf-8"?>
<!-- Generator: Adobe Illustrator 16.0.0, SVG Export Plug-In . SVG Version: 6.00 Build 0)  -->
<!DOCTYPE svg PUBLIC "-//W3C//DTD SVG 1.1//EN" "http://www.w3.org/Graphics/SVG/1.1/DTD/svg11.dtd">
<svg version="1.1" id="Layer_1" xmlns="http://www.w3.org/2000/svg" xmlns:xlink="http://www.w3.org/1999/xlink" x="0px" y="0px"
	 width="151.001px" height="150.998px" viewBox="0 0 151.001 150.998" enable-background="new 0 0 151.001 150.998"
	 xml:space="preserve">
<path fill="#3663AE" d="M75.5,0c41.699,0,75.502,33.801,75.502,75.498c0,41.699-33.803,75.5-75.502,75.5
	c-41.698,0-75.5-33.801-75.5-75.5C0,33.801,33.802,0,75.5,0"/>
<polygon fill="#E2DA4A" stroke="#000000" stroke-miterlimit="10" points="31.24,64.717 56.779,33.205 69.19,33.212 68.438,43.96 
	51.603,65.442 "/>
<polygon fill="#E2DA4A" stroke="#000000" stroke-miterlimit="10" points="121.923,64.821 100.136,45.454 93.412,45.874 
	93.412,52.175 105.181,65.194 "/>
<path fill="#E2DA4A" stroke="#000000" stroke-miterlimit="10" d="M43.488,117.921c-0.445,1.32-1.878,2.027-3.197,1.583l0,0
	c-1.319-0.446-2.027-1.876-1.584-3.194l9.812-29.051c0.444-1.318,1.876-2.027,3.196-1.584l0,0c1.322,0.445,2.03,1.875,1.583,3.195
	L43.488,117.921z"/>
<path fill="#E2DA4A" stroke="#000000" stroke-miterlimit="10" d="M63.412,101.966c0.666,0.621,0.637,1.728-0.062,2.475l0,0
	c-0.698,0.749-1.803,0.854-2.468,0.234L46.251,91.032c-0.664-0.619-0.634-1.727,0.062-2.474l0,0
	c0.698-0.749,1.806-0.853,2.467-0.233L63.412,101.966z"/>
<path fill="#DF5D38" stroke="#000000" stroke-miterlimit="10" d="M129.115,77.083c0,8.289-7.309,15.011-16.33,15.011H39.452
	c-9.021,0-16.33-6.722-16.33-15.011l0,0c0-8.291,7.31-15.01,16.33-15.01h73.333C121.806,62.073,129.115,68.792,129.115,77.083
	L129.115,77.083z"/>
<g>
	<path fill="#FFFFFF" stroke="#010101" stroke-width="0.5" stroke-miterlimit="10" d="M113.49,72.196
		c0-0.419,0.381-0.758,0.857-0.758l0,0c0.473,0,0.855,0.339,0.855,0.759l-0.004,9.227c-0.002,0.419-0.385,0.759-0.857,0.759l0,0
		c-0.475,0-0.857-0.34-0.855-0.759L113.49,72.196z"/>
	<path fill="#FFFFFF" stroke="#010101" stroke-width="0.5" stroke-miterlimit="10" d="M109.966,77.274
		c-0.418,0.002-0.754-0.382-0.758-0.854l0,0c0-0.472,0.34-0.854,0.76-0.854l9.238,0.006c0.418,0,0.758,0.383,0.758,0.854l0,0
		c0,0.472-0.34,0.854-0.76,0.854L109.966,77.274z"/>
</g>
<ellipse fill="#FFFFFF" stroke="#010101" stroke-width="0.5" stroke-miterlimit="10" cx="31.838" cy="77.582" rx="1.625" ry="1.695"/>
</svg>