<?xml version="1.0" encoding="utf-8"?>
<!-- Generator: Adobe Illustrator 16.0.0, SVG Export Plug-In . SVG Version: 6.00 Build 0)  -->
<!DOCTYPE svg PUBLIC "-//W3C//DTD SVG 1.1//EN" "http://www.w3.org/Graphics/SVG/1.1/DTD/svg11.dtd">
<svg version="1.1" id="Layer_1" xmlns="http://www.w3.org/2000/svg" xmlns:xlink="http://www.w3.org/1999/xlink" x="0px" y="0px"
	 width="151px" height="151px" viewBox="0 0 151 151" enable-background="new 0 0 151 151" xml:space="preserve">
<path fill="#9C3995" d="M75.5,0C117.198,0,151,33.803,151,75.5c0,41.698-33.803,75.5-75.5,75.5C33.802,151,0,117.198,0,75.5
	C0,33.803,33.802,0,75.5,0"/>
<polyline fill="#DF5D38" stroke="#000000" stroke-miterlimit="10" points="66.467,93.411 66.467,100.849 62.053,105.1 88.044,105.1 
	83.528,100.777 83.712,93.165 66.222,93.165 "/>
<path fill="#DF5D38" stroke="#000000" stroke-miterlimit="10" d="M121.681,90.88c0,1.5-2.064,2.718-4.61,2.718H30.254
	c-2.547,0-4.611-1.218-4.611-2.718V39.715c0-1.499,2.063-2.717,4.611-2.717h86.817c2.546,0,4.61,1.218,4.61,2.717V90.88z"/>
<ellipse fill="#FDFEFF" stroke="#FFFFFF" stroke-miterlimit="10" cx="111.974" cy="109.876" rx="0.381" ry="0.476"/>
<path fill="#3663AE" stroke="#FBFBFD" stroke-miterlimit="10" d="M115.847,83.897c0,1.166-1.795,2.111-4.004,2.111h-75.41
	c-2.212,0-4.006-0.945-4.006-2.111V44.135c0-1.166,1.794-2.112,4.006-2.112h75.41c2.209,0,4.004,0.946,4.004,2.112V83.897z"/>
<ellipse fill="#FFFFFF" stroke="#010101" stroke-width="0.5" stroke-miterlimit="10" cx="75.039" cy="98.386" rx="1.625" ry="1.695"/>
<path fill="#3663AE" stroke="#FBFBFD" stroke-miterlimit="10" d="M116.088,83.14c0,1.166-1.795,2.111-4.003,2.111H36.676
	c-2.213,0-4.006-0.945-4.006-2.111V43.377c0-1.166,1.793-2.112,4.006-2.112h75.409c2.208,0,4.003,0.946,4.003,2.112V83.14z"/>
<path opacity="0.4" fill="#5D82B8" d="M113.304,62.202c0,0.511-1.674,0.925-3.732,0.925H39.254c-2.063,0-3.735-0.414-3.735-0.925
	V44.795c0-0.511,1.672-0.925,3.735-0.925h70.317c2.059,0,3.732,0.414,3.732,0.925V62.202z"/>
<path opacity="0.4" fill="#5D82B8" d="M58,82.189c0,0.473-0.488,0.854-1.087,0.854H36.426c-0.602,0-1.088-0.382-1.088-0.854V66.118
	c0-0.473,0.487-0.854,1.088-0.854h20.487c0.6,0,1.087,0.382,1.087,0.854V82.189z"/>
<path opacity="0.4" fill="#5D82B8" d="M85.333,82.522c0,0.473-0.487,0.854-1.087,0.854H63.759c-0.602,0-1.089-0.382-1.089-0.854
	V66.451c0-0.473,0.487-0.854,1.089-0.854h20.487c0.6,0,1.087,0.382,1.087,0.854V82.522z"/>
<path fill="#DF5D38" stroke="#000000" stroke-miterlimit="10" d="M51.715,109.93c0,0.901-0.439,1.634-0.98,1.634H32.272
	c-0.541,0-0.981-0.732-0.981-1.634V79.171c0-0.902,0.44-1.634,0.981-1.634h18.463c0.541,0,0.98,0.731,0.98,1.634V109.93z"/>
<path fill="#3663AE" stroke="#FBFBFD" stroke-miterlimit="10" d="M50.03,106.785c0,0.756-0.367,1.367-0.82,1.367H33.763
	c-0.453,0-0.82-0.611-0.82-1.367V81.051c0-0.754,0.367-1.368,0.82-1.368H49.21c0.453,0,0.82,0.614,0.82,1.368V106.785z"/>
<ellipse fill="#FFFFFF" stroke="#010101" stroke-width="0.25" stroke-miterlimit="10" cx="41.281" cy="109.849" rx="0.739" ry="0.723"/>
<path opacity="0.4" fill="#5D82B8" d="M49.365,87.846c0,0.076-0.341,0.139-0.761,0.139H34.266c-0.421,0-0.762-0.062-0.762-0.139
	v-2.61c0-0.076,0.341-0.139,0.762-0.139h14.338c0.419,0,0.761,0.062,0.761,0.139V87.846z"/>
<path opacity="0.4" fill="#5D82B8" d="M49.628,92.786c0,0.05-0.341,0.091-0.761,0.091H34.529c-0.421,0-0.762-0.041-0.762-0.091
	v-1.707c0-0.05,0.341-0.09,0.762-0.09h14.338c0.419,0,0.761,0.04,0.761,0.09V92.786z"/>
<path opacity="0.4" fill="#5D82B8" d="M49.406,99.382c0,0.103-0.341,0.187-0.761,0.187H34.308c-0.421,0-0.762-0.084-0.762-0.187
	v-3.515c0-0.103,0.341-0.187,0.762-0.187h14.337c0.42,0,0.761,0.084,0.761,0.187V99.382z"/>
<path opacity="0.4" fill="#5D82B8" d="M112.667,82.522c0,0.473-0.488,0.854-1.088,0.854H91.092c-0.602,0-1.089-0.382-1.089-0.854
	V66.451c0-0.473,0.487-0.854,1.089-0.854h20.487c0.6,0,1.088,0.382,1.088,0.854V82.522z"/>
<path fill="#DF5D38" stroke="#000000" stroke-miterlimit="10" d="M130.369,109.739c0,1.296-0.802,2.345-1.787,2.345h-33.66
	c-0.986,0-1.787-1.049-1.787-2.345v-44.13c0-1.294,0.801-2.345,1.787-2.345h33.66c0.985,0,1.787,1.051,1.787,2.345V109.739z"/>
<path fill="#3663AE" stroke="#FBFBFD" stroke-miterlimit="10" d="M127.296,105.229c0,1.082-0.672,1.96-1.496,1.96H97.64
	c-0.826,0-1.496-0.878-1.496-1.96V68.305c0-1.081,0.67-1.961,1.496-1.961h28.16c0.824,0,1.496,0.88,1.496,1.961V105.229z"/>
<ellipse fill="#FFFFFF" stroke="#010101" stroke-width="0.5" stroke-miterlimit="10" cx="112.213" cy="109.527" rx="1.312" ry="1.369"/>
<path opacity="0.4" fill="#5D82B8" d="M126.781,75.453c0,0.185-0.648,0.333-1.445,0.333H98.109c-0.798,0-1.445-0.148-1.445-0.333
	v-6.258c0-0.184,0.647-0.333,1.445-0.333h27.227c0.797,0,1.445,0.149,1.445,0.333V75.453z"/>
<path opacity="0.4" fill="#5D82B8" d="M105.935,104.285c0,0.368-0.18,0.666-0.4,0.666h-7.529c-0.222,0-0.4-0.298-0.4-0.666V91.754
	c0-0.368,0.179-0.666,0.4-0.666h7.529c0.221,0,0.4,0.298,0.4,0.666V104.285z"/>
<path opacity="0.4" fill="#5D82B8" d="M126.601,80.997c0,0.062-0.645,0.113-1.436,0.113H98.124c-0.794,0-1.437-0.051-1.437-0.113
	V78.86c0-0.063,0.643-0.114,1.437-0.114h27.042c0.791,0,1.436,0.051,1.436,0.114V80.997z"/>
<path opacity="0.4" fill="#5D82B8" d="M126.601,86.747c0,0.062-0.645,0.113-1.436,0.113H98.124c-0.794,0-1.437-0.051-1.437-0.113
	V84.61c0-0.063,0.643-0.114,1.437-0.114h27.042c0.791,0,1.436,0.051,1.436,0.114V86.747z"/>
<path opacity="0.4" fill="#5D82B8" d="M115.935,104.368c0,0.368-0.18,0.666-0.4,0.666h-7.529c-0.222,0-0.4-0.298-0.4-0.666V91.837
	c0-0.368,0.179-0.666,0.4-0.666h7.529c0.221,0,0.4,0.298,0.4,0.666V104.368z"/>
<path opacity="0.4" fill="#5D82B8" d="M125.935,104.369c0,0.368-0.18,0.666-0.4,0.666h-7.529c-0.222,0-0.4-0.298-0.4-0.666V91.838
	c0-0.368,0.179-0.666,0.4-0.666h7.529c0.221,0,0.4,0.298,0.4,0.666V104.369z"/>
</svg>
