<?xml version="1.0" encoding="utf-8"?>
<!-- Generator: Adobe Illustrator 16.0.0, SVG Export Plug-In . SVG Version: 6.00 Build 0)  -->
<!DOCTYPE svg PUBLIC "-//W3C//DTD SVG 1.1//EN" "http://www.w3.org/Graphics/SVG/1.1/DTD/svg11.dtd">
<svg version="1.1" id="Layer_1" xmlns="http://www.w3.org/2000/svg" xmlns:xlink="http://www.w3.org/1999/xlink" x="0px" y="0px"
	 width="65px" height="65px" viewBox="274.145 354.355 65 65" enable-background="new 274.145 354.355 65 65" xml:space="preserve">
<circle fill="#E05D38" cx="306.645" cy="386.855" r="32.5"/>
<path id="_x31_28" fill="#FFFFFF" d="M330.685,373.407c-1.671,0.726-3.466,1.221-5.343,1.449c-0.015-0.034-0.028-0.067-0.043-0.101
	c1.987-1.163,3.522-3.015,4.278-5.229c-0.575,0.354-3.353,1.919-6.062,2.424c-1.769-1.939-4.312-3.156-7.144-3.156
	c-5.979,0-9.663,4.906-9.663,9.664c0,0.371,0.176,1.905,0.206,1.992c-8.034-0.175-15.159-4.042-19.747-9.97
	c-3.286,5.982,0.157,11.169,2.517,13.02c-1.371-0.023-2.676-0.319-3.862-0.836c0.25,4.602,3.579,8.382,7.963,9.323
	c-1.757,0.493-3.863,0.116-4.676-0.094c1.295,3.85,4.844,6.663,9.078,6.871c-6.48,4.764-13.471,4.276-13.583,4.274
	c4.108,2.461,8.915,3.91,14.051,3.878c18.825-0.122,28.491-16.829,27.341-28.819C328.059,377.136,329.725,375.469,330.685,373.407z"
	/>
</svg>
