<?xml version="1.0" encoding="utf-8"?>
<!-- Generator: Adobe Illustrator 16.0.0, SVG Export Plug-In . SVG Version: 6.00 Build 0)  -->
<!DOCTYPE svg PUBLIC "-//W3C//DTD SVG 1.1//EN" "http://www.w3.org/Graphics/SVG/1.1/DTD/svg11.dtd">
<svg version="1.1" id="Layer_1" xmlns="http://www.w3.org/2000/svg" xmlns:xlink="http://www.w3.org/1999/xlink" x="0px" y="0px"
	 width="297px" height="276px" viewBox="0 0 297 276" enable-background="new 0 0 297 276" xml:space="preserve">
<g>
	<rect x="5.759" y="2.053" fill="#DF5D38" width="285.482" height="168.908"/>
</g>
<g>
	<path fill="#FFFFFF" d="M76.238,158.707v-10.776c-2.659,3.841-6.155,6.869-10.487,9.082s-8.905,3.321-13.719,3.321
		c-4.906,0-9.308-1.062-13.204-3.186c-3.897-2.123-6.717-5.105-8.459-8.946c-1.743-3.84-2.613-9.149-2.613-15.927V86.731H47.08
		v33.073c0,10.122,0.355,16.323,1.066,18.604c0.71,2.281,2.005,4.089,3.886,5.422c1.879,1.333,4.264,1.999,7.152,1.999
		c3.301,0,6.258-0.892,8.871-2.677c2.613-1.785,4.401-3.999,5.364-6.643c0.963-2.643,1.444-9.115,1.444-19.417V86.731h19.324v71.976
		H76.238z"/>
	<path fill="#FFFFFF" d="M104.915,158.707l26.339-37.072l-25.238-34.903h23.588l12.928,19.79l13.617-19.79h22.693l-24.757,34.09
		l27.026,37.886h-23.726l-14.854-22.298l-14.992,22.298H104.915z"/>
</g>
<g>
	<path stroke="#3A1413" stroke-width="0.25" d="M126.001,189.286c-0.068-0.601,0.255-0.75,0.968-0.45
		c0.713,0.3,1.442,0.618,2.19,0.951c0.271,1.535,0.474,2.752,0.611,3.652c0.135,0.9,0.237,1.751,0.305,2.552
		c0.067,0.801,0.136,1.669,0.204,2.603c0.067,0.935,0.168,2.168,0.306,3.702c0.611-1.534,1.357-2.952,2.241-4.253
		c0.882-1.301,2.02-2.418,3.413-3.353c1.391-0.934,3.056-1.617,4.992-2.052c1.936-0.433,4.261-0.583,6.978-0.45
		c0,0.535-0.188,0.985-0.56,1.351c-0.374,0.368-1.24,0.651-2.598,0.852c-1.971,0.334-3.685,0.984-5.145,1.951
		c-1.461,0.968-2.717,2.086-3.77,3.353c-1.054,1.268-1.902,2.619-2.547,4.053c-0.646,1.436-1.171,2.752-1.579,3.953
		c-0.068,0.601-0.152,1.451-0.254,2.552s-0.17,2.27-0.204,3.503c-0.035,1.235-0.069,2.437-0.102,3.603
		c-0.035,1.168,0.016,2.086,0.153,2.752c0.067,0.335-0.086,0.585-0.458,0.751c-0.374,0.165-0.799,0.283-1.273,0.35
		c-0.476,0.066-0.917,0.033-1.324-0.1c-0.408-0.135-0.611-0.366-0.611-0.7c0.135-6.871-0.051-12.793-0.56-17.764
		C126.867,197.677,126.409,193.224,126.001,189.286z"/>
	<path stroke="#3A1413" stroke-width="0.25" d="M154.729,192.589c0.203-0.065,0.779-0.25,1.73-0.551
		c0.951-0.3,1.732-0.35,2.344-0.149c1.969-0.066,3.479,0.435,4.533,1.501c1.053,1.067,1.137,3.137,0.254,6.204
		c-1.291,3.403-3.004,6.239-5.145,8.507c-2.139,2.269-4.67,4.438-7.589,6.505c0.679,1.735,1.696,2.702,3.056,2.902
		c1.357,0.2,2.785-0.016,4.279-0.65c1.492-0.634,2.953-1.484,4.381-2.552c1.426-1.067,2.58-2.002,3.463-2.803
		c1.426-1.201,2.562-2.217,3.412-3.052c0.85-0.834,1.748-1.852,2.701-3.053c0.203-0.133,0.32-0.115,0.355,0.05
		c0.033,0.168,0.016,0.418-0.051,0.751c-0.068,0.335-0.17,0.801-0.305,1.401c-0.205,0.467-0.408,0.885-0.611,1.25
		c-0.205,0.368-0.494,0.769-0.867,1.201c-0.373,0.435-0.865,0.951-1.477,1.552c-0.611,0.6-1.359,1.4-2.24,2.401
		c-1.02,0.936-2.006,1.852-2.955,2.752c-0.951,0.9-1.953,1.686-3.006,2.352c-1.053,0.668-2.207,1.136-3.463,1.401
		c-1.258,0.268-2.699,0.268-4.33,0c-1.359-0.466-2.445-0.966-3.26-1.501c-0.815-0.533-1.443-1.084-1.884-1.651
		c-0.443-0.566-0.764-1.084-0.968-1.551c-0.204-0.466-0.341-0.866-0.408-1.201c-0.341-1.334-0.476-3.135-0.408-5.404
		c0.067-2.268,0.747-5.204,2.038-8.807c0.882-1.867,1.834-3.452,2.853-4.754C152.183,194.34,153.37,193.324,154.729,192.589z
		 M150.246,210.302c0.882-0.466,1.919-1.116,3.106-1.951c1.188-0.833,2.309-1.801,3.363-2.902c1.051-1.101,1.969-2.317,2.75-3.652
		c0.779-1.334,1.205-2.735,1.273-4.203c0.203-1.001,0.168-1.701-0.102-2.102c-0.137-0.2-0.273-0.301-0.408-0.301
		c-1.156-0.533-2.309-0.365-3.463,0.501c-1.156,0.867-2.209,2.102-3.158,3.702c-0.953,1.602-1.75,3.388-2.395,5.354
		C150.568,206.717,150.246,208.568,150.246,210.302z"/>
	<path stroke="#3A1413" stroke-width="0.25" d="M192.625,191.488c-0.068,0.4-0.221,1.235-0.458,2.502
		c-0.238,1.268-0.493,2.752-0.764,4.453c-0.272,1.701-0.51,3.487-0.714,5.354c-0.203,1.869-0.322,3.638-0.356,5.305
		c-0.035,1.668,0.067,3.086,0.306,4.253c0.237,1.168,0.627,1.886,1.172,2.151c1.562,0.735,3.158,0.485,4.788-0.75
		c1.63-1.234,3.53-3.118,5.705-5.654c0.203,0,0.219,0.267,0.051,0.801c-0.171,0.534-0.442,1.117-0.815,1.751
		c-0.374,0.635-0.748,1.268-1.12,1.901c-0.374,0.635-0.662,1.051-0.866,1.251c-0.544,0.668-1.324,1.418-2.343,2.252
		c-1.019,0.835-2.106,1.501-3.26,2.001c-1.156,0.501-2.259,0.718-3.312,0.65c-1.054-0.065-1.919-0.666-2.598-1.801
		c-0.341-0.801-0.544-1.784-0.611-2.952c-0.068-1.167-0.068-2.353,0-3.553c0.067-1.201,0.169-2.302,0.306-3.303
		c0.136-1.001,0.237-1.734,0.306-2.202c-1.426,2.603-3.056,5.071-4.89,7.406c-1.834,2.336-3.634,4.17-5.399,5.504
		c-1.767,1.335-3.396,2.052-4.89,2.151c-1.495,0.101-2.648-0.75-3.464-2.552c-0.474-1.734-0.474-3.686,0-5.854
		c0.477-2.167,1.189-4.118,2.14-5.854c1.426-2.401,2.919-4.604,4.482-6.604c1.562-2.002,3.225-3.703,4.991-5.104
		c1.766-1.4,3.617-2.417,5.553-3.052C188.5,191.305,190.52,191.155,192.625,191.488z M173.474,216.907
		c0.678,0.135,1.766-0.366,3.26-1.501c1.493-1.134,3.057-2.718,4.687-4.754c1.63-2.034,3.106-4.403,4.431-7.105
		c1.325-2.702,2.19-5.554,2.598-8.557c-0.271,0-0.662,0-1.171,0c-0.51,0-1.104,0.2-1.783,0.601c-2.581,1.669-4.788,3.62-6.621,5.854
		c-1.834,2.236-3.26,4.403-4.279,6.505c-1.019,2.102-1.63,3.987-1.833,5.654C172.557,215.273,172.794,216.374,173.474,216.907z"/>
	<path stroke="#3A1413" stroke-width="0.25" d="M237.447,168.271c-0.204,1.201-0.442,2.469-0.713,3.803
		c-0.272,1.336-0.561,2.603-0.866,3.803c-0.306,1.201-0.561,2.236-0.764,3.103c-0.204,0.868-0.341,1.401-0.408,1.602
		c-0.407,1.135-0.951,2.602-1.63,4.403c-0.68,1.801-1.477,3.687-2.394,5.654c-0.917,1.969-1.953,3.937-3.107,5.904
		c-1.155,1.969-2.343,3.652-3.565,5.054c0,1.001,0.118,2.687,0.356,5.054c0.237,2.369,0.525,4.921,0.866,7.656
		c0.339,2.736,0.662,5.421,0.968,8.056s0.491,4.687,0.561,6.154c-0.341,0.333-0.646,0.266-0.917-0.2
		c-0.272-0.467-0.68-1.268-1.223-2.401c-0.407-1.735-0.73-3.337-0.968-4.804c-0.239-1.467-0.459-2.952-0.662-4.453
		c-0.204-1.501-0.425-3.085-0.662-4.754c-0.239-1.667-0.596-3.568-1.07-5.704c-1.29,1.601-2.836,3.42-4.635,5.454
		c-1.8,2.036-3.667,3.837-5.603,5.404c-1.936,1.568-3.838,2.669-5.705,3.302c-1.869,0.634-3.481,0.351-4.839-0.851
		c-0.815-1.066-1.172-2.317-1.069-3.753c0.102-1.434,0.509-2.901,1.222-4.403c0.714-1.501,1.63-2.984,2.751-4.453
		c1.12-1.467,2.257-2.835,3.412-4.103c1.154-1.267,2.241-2.368,3.261-3.303c1.019-0.934,1.765-1.602,2.241-2.002
		c0.95-0.601,1.747-1.083,2.394-1.451c0.645-0.365,1.223-0.666,1.731-0.9c0.51-0.232,1.035-0.4,1.579-0.5
		c0.543-0.101,1.223-0.116,2.038-0.051c-0.138-1.533-0.222-3.368-0.255-5.504c-0.035-2.134-0.035-4.286,0-6.455
		c0.033-2.167,0.102-4.186,0.203-6.054c0.103-1.867,0.255-3.303,0.459-4.304c0.135-1.467,0.458-3.002,0.968-4.604
		s1.154-3.152,1.936-4.653c0.78-1.501,1.646-2.835,2.598-4.003c0.95-1.167,1.986-2.002,3.107-2.502
		c1.12-0.5,2.274-0.616,3.463-0.351c1.188,0.268,2.359,1.101,3.515,2.502c0.95,1.136,1.427,2.552,1.427,4.253
		C237.447,164.618,237.447,166.403,237.447,168.271z M209.229,204.298c-1.834,1.868-3.176,3.587-4.023,5.153
		c-0.851,1.568-1.546,3.02-2.089,4.354c0,0.2,0,0.518,0,0.951c0,0.435,0.051,0.851,0.153,1.251c0.102,0.4,0.305,0.75,0.61,1.051
		c0.306,0.3,0.798,0.385,1.478,0.25c0.678-0.266,1.238-0.533,1.681-0.801c0.441-0.266,0.849-0.551,1.223-0.851
		c0.372-0.3,0.78-0.616,1.223-0.951c0.44-0.333,1.001-0.766,1.681-1.301c0.95-1.001,2.122-2.134,3.515-3.402
		c1.392-1.267,2.613-2.602,3.667-4.003c1.053-1.401,1.748-2.835,2.089-4.304c0.339-1.467-0.102-2.901-1.324-4.303
		c-0.477,0-0.968,0.067-1.478,0.2c-0.509,0.135-1.138,0.45-1.885,0.95c-0.748,0.501-1.647,1.201-2.699,2.102
		C211.995,201.546,210.722,202.764,209.229,204.298z M224,194.99c1.223-1.333,2.241-2.752,3.056-4.253
		c0.815-1.501,1.732-3.285,2.751-5.354c0.882-1.802,1.681-4.104,2.394-6.905c0.714-2.803,1.205-5.555,1.478-8.257
		c0.271-2.702,0.271-5.054,0-7.055c-0.272-2.002-0.952-3.068-2.037-3.203c-0.952-0.133-1.834,0.218-2.648,1.051
		c-0.815,0.835-1.563,1.869-2.241,3.103c-0.68,1.235-1.258,2.552-1.732,3.953c-0.476,1.401-0.814,2.637-1.019,3.703
		c-0.272,1.335-0.458,2.536-0.561,3.603c-0.102,1.067-0.17,2.186-0.203,3.353c-0.035,1.168-0.086,2.437-0.153,3.803
		c-0.068,1.368-0.203,3.053-0.407,5.054c0,1.001,0.051,2.002,0.152,3.002c0.103,1.001,0.237,1.852,0.408,2.553
		c0.168,0.7,0.321,1.235,0.458,1.601C223.83,195.107,223.932,195.19,224,194.99z"/>
	<path stroke="#3A1413" stroke-width="0.25" d="M241.93,213.905c1.562,0.734,3.345-0.416,5.349-3.453
		c2.002-3.035,3.616-7.956,4.839-14.761c0-0.066,0.22-0.066,0.662,0c0.44,0.067,0.899,0.167,1.375,0.3
		c0.475,0.135,0.917,0.301,1.324,0.501s0.611,0.367,0.611,0.5c0,1.001-0.068,2.201-0.204,3.603
		c-0.137,1.401-0.289,2.937-0.458,4.604c-0.17,1.669-0.29,3.438-0.356,5.304c-0.068,1.869-0.068,3.737,0,5.604
		c1.834-1.534,3.785-2.702,5.857-3.503c2.071-0.8,4.058-1.301,5.96-1.501c0.678,0.335,1.034,0.551,1.069,0.65
		c0.033,0.101-0.119,0.285-0.458,0.551c-2.582,0.735-4.839,1.735-6.774,3.002c-1.937,1.269-3.787,2.67-5.553,4.203
		c0,2.135,0.033,4.437,0.103,6.905c0.066,2.468,0.102,4.937,0.102,7.406c0,2.467-0.018,4.903-0.051,7.305
		c-0.035,2.402-0.171,4.569-0.408,6.505c-0.238,1.935-0.577,3.586-1.019,4.954c-0.442,1.367-1.036,2.284-1.782,2.752
		c-0.545,0.333-1.172,0.551-1.885,0.65c-0.713,0.101-1.427,0.116-2.14,0.051c-0.713-0.067-1.393-0.218-2.037-0.451
		c-0.646-0.234-1.172-0.55-1.579-0.95c-1.291-1.269-2.208-2.887-2.751-4.854c-0.544-1.969-0.814-4.12-0.814-6.455
		c0-2.336,0.271-4.738,0.814-7.205c0.543-2.47,1.273-4.839,2.19-7.105c0.917-2.27,2.038-4.32,3.362-6.155
		c1.324-1.836,2.767-3.252,4.329-4.253c0.204-3.603,0.306-7.138,0.306-10.608c-0.68,1.736-1.665,3.604-2.954,5.604
		c-1.291,2.002-2.888,3.57-4.788,4.704c-2.105,0.935-3.889,0.835-5.349-0.301c-1.461-1.134-2.36-2.867-2.699-5.204
		c-0.341-2.734-0.611-5.004-0.815-6.805c-0.203-1.802-0.374-3.503-0.509-5.104c-0.137-1.602-0.255-3.269-0.356-5.004
		c-0.103-1.734-0.255-3.903-0.459-6.505c0.34-0.2,0.849-0.251,1.528-0.15c0.678,0.1,1.188,0.317,1.528,0.65
		c0.204,0,0.339,0.535,0.407,1.602c0.067,1.067,0.136,2.436,0.204,4.103c0.066,1.669,0.169,3.487,0.306,5.454
		c0.135,1.969,0.356,3.838,0.662,5.604c0.306,1.769,0.713,3.319,1.223,4.653C240.351,212.639,241.046,213.505,241.93,213.905z
		 M252.32,222.312c-0.407,0.466-0.832,0.916-1.273,1.351c-0.442,0.434-0.865,0.916-1.273,1.451
		c-0.883,1.066-1.731,2.502-2.546,4.304c-0.815,1.801-1.513,3.768-2.089,5.904c-0.578,2.134-0.968,4.286-1.172,6.455
		c-0.203,2.167-0.152,4.103,0.153,5.804s0.933,3.035,1.885,4.003c0.95,0.967,2.274,1.352,3.973,1.151
		c0.678-0.135,1.223-0.901,1.63-2.302c0.407-1.401,0.695-3.12,0.866-5.154c0.169-2.036,0.271-4.271,0.306-6.705
		c0.033-2.436,0.016-4.771-0.051-7.005c-0.068-2.236-0.153-4.188-0.255-5.854C252.372,224.045,252.32,222.912,252.32,222.312z"/>
</g>
<g>
	<path stroke="#3A1413" stroke-width="0.25" d="M35.372,176.006c0.964-0.134,1.543,0.271,1.738,1.215
		c0.192,0.945,0,1.653-0.579,2.124c-1.063,0.607-1.738,1.131-2.027,1.568c-0.29,0.439-0.966,0.726-2.027,0.86
		c-0.579-0.066-1.086-0.084-1.521-0.051c-0.435,0.035-0.796-0.521-1.086-1.669c0.385-0.741,0.989-1.483,1.811-2.227
		C32.499,177.086,33.729,176.479,35.372,176.006z M35.807,189.159c0.482,3.238,0.819,6.797,1.014,10.675
		c0.192,3.88,0.53,7.942,1.014,12.192c0.385,2.159,0.772,3.845,1.159,5.059c0.385,1.215,0.674,2.362,0.869,3.44
		c-1.545,0.202-2.751,0.185-3.62-0.051c-0.869-0.235-1.69-0.521-2.462-0.859c-0.194-1.079-0.412-2.866-0.651-5.363
		c-0.242-2.494-0.484-5.211-0.724-8.145c-0.242-2.935-0.484-5.783-0.724-8.55c-0.242-2.765-0.459-4.958-0.652-6.577
		c0.385-0.134,0.699-0.336,0.941-0.606c0.24-0.269,0.507-0.506,0.796-0.708c0.29-0.203,0.674-0.37,1.159-0.507
		C34.406,189.025,35.033,189.025,35.807,189.159z"/>
	<path stroke="#3A1413" stroke-width="0.25" d="M58.055,194.266c1.987,0.223,3.639,0.528,4.952,0.917
		c1.312,0.39,2.345,0.82,3.102,1.292c0.755,0.473,1.352,0.959,1.79,1.459c0.437,0.5,0.854,0.973,1.253,1.417
		c-0.08,0.223-0.458,0.195-1.133-0.083c-0.677-0.277-1.333-0.555-1.969-0.834c-1.75-0.777-3.859-1.25-6.324-1.417
		c-2.467-0.167-4.754-0.069-6.861,0.292c-2.108,0.361-3.799,0.987-5.071,1.875c-1.273,0.89-1.592,1.974-0.955,3.252
		c0.636,1.278,1.769,2.39,3.4,3.334c1.629,0.946,3.44,1.793,5.429,2.543c1.988,0.75,3.977,1.432,5.966,2.042
		c1.988,0.612,3.619,1.224,4.892,1.834c1.59-0.61,2.942-1.125,4.057-1.542c1.113-0.417,2.106-0.805,2.983-1.167
		c0.874-0.36,1.769-0.694,2.685-1c0.914-0.305,1.969-0.653,3.162-1.042c0.159-0.055,0.298-0.084,0.418-0.084
		c0.119,0,0.119,0.07,0,0.209c-0.12,0.139-0.438,0.361-0.955,0.667c-0.519,0.306-1.333,0.737-2.446,1.292
		c-0.557,0.278-1.592,0.75-3.102,1.417c-1.512,0.667-3.144,1.39-4.892,2.167c0.955,0.612,1.709,1.251,2.267,1.918
		c0.477,0.612,0.814,1.265,1.014,1.959c0.198,0.695,0.019,1.404-0.537,2.126c-1.592,1.777-3.382,3.168-5.369,4.168
		c-1.989,1-3.818,1.694-5.488,2.084c-1.115,0.277-2.347,0.305-3.699,0.084c-1.354-0.224-2.427-0.667-3.221-1.334
		c-0.876-0.89-1.095-1.793-0.656-2.71c0.436-0.917,1.172-1.805,2.207-2.667c1.033-0.861,2.226-1.681,3.58-2.46
		c1.352-0.777,2.545-1.472,3.58-2.084c-0.716-0.555-2.108-1.236-4.176-2.042c-2.069-0.806-4.196-1.695-6.383-2.668
		c-2.188-0.972-4.157-2.014-5.906-3.126c-1.749-1.111-2.703-2.223-2.863-3.335c-0.317-1.222-0.099-2.403,0.656-3.543
		c0.757-1.139,1.868-2.139,3.341-3.001c1.471-0.861,3.18-1.501,5.13-1.917C53.858,194.141,55.907,194.044,58.055,194.266z
		 M56.981,222.859c0.875,0.277,1.868,0.277,2.983,0c1.113-0.278,2.167-0.681,3.162-1.209c0.994-0.528,1.868-1.112,2.625-1.75
		c0.755-0.639,1.253-1.209,1.491-1.709c0.239-0.444,0.019-0.931-0.656-1.459c-0.677-0.527-1.372-0.959-2.088-1.292
		c-0.876,0.445-1.87,1.015-2.983,1.709c-1.115,0.695-2.088,1.404-2.923,2.126c-0.835,0.723-1.452,1.417-1.849,2.084
		C56.344,222.026,56.424,222.526,56.981,222.859z"/>
</g>
<polygon fill="#DF5D38" points="124.134,164.102 97.196,198.93 70.243,164.102 "/>
</svg>
