<?xml version="1.0" encoding="utf-8"?>
<!-- Generator: Adobe Illustrator 16.0.0, SVG Export Plug-In . SVG Version: 6.00 Build 0)  -->
<!DOCTYPE svg PUBLIC "-//W3C//DTD SVG 1.1//EN" "http://www.w3.org/Graphics/SVG/1.1/DTD/svg11.dtd">
<svg version="1.1" id="Layer_1" xmlns="http://www.w3.org/2000/svg" xmlns:xlink="http://www.w3.org/1999/xlink" x="0px" y="0px"
	 width="266.333px" height="191.667px" viewBox="0 0 266.333 191.667" enable-background="new 0 0 266.333 191.667"
	 xml:space="preserve">
<g id="Layer_7">
	<rect y="-1" stroke="#FFFFFF" width="267.668" height="196.167"/>
</g>
<g id="Layer_4">
	<g id="logo_x5F_outlines_copy">
		<g>
			<path fill="#8DCFE3" d="M133.633,167.52l4.188-0.672c0.261,1.053,0.738,1.925,1.438,2.615c0.697,0.693,1.619,1.039,2.766,1.039
				c1.156,0,2.051-0.273,2.682-0.828c0.629-0.551,0.943-1.27,0.943-2.154c0-0.479-0.1-0.914-0.297-1.307
				c-0.197-0.391-0.443-0.713-0.742-0.969c-0.297-0.254-0.691-0.51-1.188-0.766c-0.496-0.255-0.965-0.466-1.406-0.633
				c-0.441-0.166-0.992-0.381-1.646-0.641c-0.656-0.261-1.221-0.5-1.688-0.721c-0.488-0.238-0.908-0.461-1.259-0.662
				c-0.35-0.203-0.725-0.473-1.125-0.807c-0.399-0.333-0.727-0.688-0.977-1.062s-0.459-0.834-0.625-1.375
				c-0.168-0.541-0.25-1.135-0.25-1.781c0-1.021,0.211-1.938,0.633-2.758c0.422-0.816,0.992-1.479,1.711-1.983
				s1.523-0.89,2.414-1.147c0.891-0.26,1.832-0.392,2.82-0.392c1.75,0,3.293,0.453,4.633,1.358c1.34,0.906,2.236,2.047,2.695,3.422
				l-4.268,0.797c-0.51-1.207-1.529-1.811-3.062-1.811c-0.969,0-1.763,0.194-2.375,0.586c-0.614,0.391-0.922,1.034-0.922,1.93
				c0,0.418,0.142,0.804,0.422,1.156c0.281,0.354,0.681,0.67,1.194,0.944c0.517,0.276,1.021,0.517,1.517,0.72
				c0.494,0.203,1.065,0.428,1.72,0.672c0.649,0.246,1.145,0.444,1.477,0.603c0.594,0.28,1.113,0.558,1.562,0.828
				c0.446,0.271,0.891,0.603,1.327,0.991c0.437,0.391,0.793,0.809,1.07,1.25c0.274,0.443,0.495,0.968,0.664,1.57
				c0.166,0.604,0.25,1.266,0.25,1.983c0,2.053-0.757,3.692-2.267,4.922c-1.512,1.229-3.393,1.845-5.643,1.845
				c-2.176,0-4.043-0.621-5.602-1.867C134.865,171.172,133.936,169.542,133.633,167.52z"/>
			<path fill="#8DCFE3" d="M152.336,151.083h18.781v3.733h-7.142v19.017h-4.188v-19.017h-7.453L152.336,151.083L152.336,151.083z"/>
			<path fill="#8DCFE3" d="M186.792,151.083h4.28v11.906c0,3.553-0.754,6.322-2.258,8.311c-1.506,1.99-3.603,2.984-6.289,2.984
				c-2.679,0-4.771-0.994-6.272-2.984c-1.506-1.988-2.258-4.76-2.258-8.311v-11.906h4.28v11.906c0,5.012,1.416,7.516,4.25,7.516
				c2.845,0,4.267-2.504,4.267-7.516V151.083z"/>
			<path fill="#8DCFE3" d="M211.995,162.083c0,2.219-0.402,4.223-1.203,6.008c-0.804,1.787-1.937,3.191-3.398,4.211
				c-1.465,1.021-3.127,1.531-4.992,1.531h-7.297v-22.75h7.297c1.887,0,3.562,0.496,5.031,1.483c1.469,0.99,2.598,2.317,3.383,3.983
				C211.6,158.217,211.995,160.062,211.995,162.083z M207.572,162.083c0-2.104-0.487-3.84-1.461-5.211
				c-0.976-1.369-2.211-2.056-3.711-2.056h-3.108v15.267h3.108c1.521,0,2.763-0.733,3.728-2.203
				C207.09,166.411,207.572,164.479,207.572,162.083z"/>
			<path fill="#8DCFE3" d="M215.43,173.833v-22.75h4.203v22.75H215.43z"/>
			<path fill="#8DCFE3" d="M223.43,162.049c0-1.041,0.105-2.078,0.312-3.115c0.209-1.036,0.559-2.062,1.047-3.078
				c0.49-1.016,1.094-1.911,1.812-2.688c0.721-0.774,1.635-1.402,2.742-1.883c1.109-0.479,2.34-0.72,3.695-0.72
				c1.354,0,2.586,0.24,3.695,0.72c1.107,0.479,2.021,1.104,2.74,1.875c0.721,0.771,1.32,1.668,1.807,2.688
				c0.482,1.021,0.83,2.047,1.039,3.076c0.207,1.031,0.311,2.074,0.311,3.125c0,1.115-0.104,2.224-0.311,3.32
				c-0.209,1.102-0.561,2.193-1.047,3.281c-0.49,1.09-1.096,2.045-1.812,2.867c-0.719,0.822-1.631,1.49-2.734,2
				s-2.334,0.766-3.688,0.766c-1.344,0-2.57-0.256-3.68-0.766c-1.111-0.51-2.023-1.178-2.742-2s-1.324-1.775-1.812-2.859
				c-0.488-1.082-0.842-2.177-1.055-3.281C223.538,164.275,223.43,163.167,223.43,162.049z M238.227,162.049
				c0-0.957-0.086-1.865-0.258-2.727c-0.172-0.859-0.443-1.677-0.818-2.453c-0.375-0.773-0.914-1.396-1.617-1.857
				c-0.703-0.465-1.533-0.695-2.492-0.695c-0.771,0-1.461,0.156-2.07,0.471c-0.607,0.312-1.104,0.721-1.482,1.227
				c-0.381,0.506-0.697,1.102-0.953,1.789s-0.434,1.381-0.531,2.078c-0.1,0.697-0.148,1.422-0.148,2.172
				c0,0.812,0.055,1.602,0.156,2.367c0.105,0.766,0.281,1.521,0.531,2.271s0.568,1.4,0.953,1.953c0.385,0.555,0.883,1,1.492,1.346
				c0.607,0.344,1.295,0.516,2.055,0.516c0.771,0,1.461-0.172,2.07-0.516c0.607-0.346,1.104-0.791,1.482-1.346
				c0.381-0.553,0.697-1.203,0.953-1.953s0.434-1.508,0.531-2.271C238.178,163.652,238.227,162.864,238.227,162.049z"/>
			<path fill="#8DCFE3" d="M245.18,167.52l4.189-0.672c0.26,1.053,0.736,1.925,1.438,2.615c0.697,0.693,1.619,1.039,2.768,1.039
				c1.154,0,2.049-0.273,2.68-0.828c0.629-0.551,0.945-1.27,0.945-2.154c0-0.479-0.102-0.914-0.299-1.307
				c-0.197-0.391-0.443-0.713-0.74-0.969c-0.297-0.254-0.693-0.51-1.189-0.766c-0.494-0.255-0.963-0.466-1.406-0.633
				c-0.441-0.166-0.99-0.381-1.646-0.641c-0.656-0.261-1.219-0.5-1.688-0.721c-0.488-0.238-0.908-0.461-1.258-0.662
				c-0.35-0.203-0.725-0.473-1.125-0.807c-0.4-0.333-0.727-0.688-0.977-1.062s-0.459-0.834-0.625-1.375
				c-0.168-0.541-0.25-1.135-0.25-1.781c0-1.021,0.211-1.938,0.633-2.758c0.422-0.816,0.992-1.479,1.711-1.983
				s1.523-0.89,2.414-1.147c0.891-0.26,1.83-0.392,2.82-0.392c1.75,0,3.293,0.453,4.633,1.358c1.338,0.906,2.234,2.047,2.695,3.422
				l-4.268,0.797c-0.512-1.207-1.531-1.811-3.062-1.811c-0.971,0-1.762,0.194-2.375,0.586c-0.615,0.391-0.922,1.034-0.922,1.93
				c0,0.418,0.141,0.804,0.422,1.156c0.279,0.354,0.68,0.67,1.193,0.944c0.518,0.276,1.021,0.517,1.518,0.72
				c0.494,0.203,1.066,0.428,1.719,0.672c0.65,0.246,1.143,0.444,1.477,0.603c0.596,0.28,1.115,0.558,1.562,0.828
				s0.891,0.603,1.328,0.991c0.438,0.391,0.795,0.809,1.068,1.25c0.275,0.443,0.498,0.968,0.664,1.57
				c0.166,0.604,0.25,1.266,0.25,1.983c0,2.053-0.756,3.692-2.266,4.922s-3.391,1.845-5.641,1.845c-2.18,0-4.045-0.621-5.604-1.867
				C246.413,171.172,245.483,169.542,245.18,167.52z"/>
		</g>
	</g>
	<g id="Layer_5" display="none">
		<g display="inline" opacity="0.5">
			<path fill="#E0A953" d="M40.265,53.202c0,0,22.979-17.654,25.979-17.986c2.997-0.334,10.66-2.666,11.991,4.664
				c0.539,2.973,1.136,8.641,1.651,14.322c0.757,8.312,1.347,16.651,1.347,16.651l1.002,10.026l0.994,9.959L85,100.165l2.334,14.332
				L92,136.165l3.668,13c0,0,3.332,11.332,9.545,12.955c5.479,1.432,18.986-11.326,18.986-11.326s4.331-2.334,4.661,0.996
				c0.336,3.334-13.653,12.326-13.653,12.326l-18.205,13.717c0,0-12.104,11.269-16.104,3.604
				c-3.993-7.662-8.324-52.625-8.324-52.625s-1.529-7.67-4.664-5.664c-8.326,5.328-16.654,15.322-16.654,15.322l-14.322,16.983
				l-8.66,11.994c0,0-2.664,6.659-1.666,13.987c0.999,7.328-14.655,5.662-15.988,2.33c-1.329-3.328,1.333-13.654,11.326-24.647
				c9.993-10.988,21.317-23.312,21.317-23.312l12.326-11.66l8.66-7.662c0,0,2.998-2.326,1.998-8.658
				c-0.998-6.33-6.994-23.982-6.994-23.982l-8.328-20.317c0,0-2.163-5.133-4.663-3.993c-3.664,1.663-11.324,6.325-14.655,8.657
				c-3.332,2.334-7.328,4.328-11.993,6.992c-5.316,3.041-12.451,0.745-2.33-6.992C22.944,63.861,40.265,53.202,40.265,53.202z"/>
			<path fill="#E0A953" d="M83.231,94.834c0,0,9.771-9.002,14.988-15.65c5.189-6.615,15.115-19.686,19.115-25.686
				c4.385-6.574,9.53-14.953,9.53-22.947s-4.329-17.652,0.337-18.652c4.661-0.998,12.987,0.332,14.651,2.998
				c1.666,2.664,2.332,9.658-1.664,17.652c-3.996,7.996-20.521,29.617-20.521,29.617l-21.449,26.01l-12.988,15.654L83.231,94.834z"
				/>
			<path fill="#E0A953" d="M169.827,110c-1.49,9.5-8.931,16.488-19.318,16.488c-10.396,0-18.322-6.648-18.322-16.488
				c0-9.842,8.596-19.484,18.984-19.484C161.565,90.515,171.35,100.276,169.827,110z M141.008,107.834
				c0,6.986,4.479,12.654,9.998,12.654c5.52,0,9.988-5.668,9.988-12.654c0-6.99-4.47-12.66-9.988-12.66
				C145.489,95.174,141.008,100.844,141.008,107.834z"/>
			<path fill="#E0A953" d="M216.822,120.161"/>
			<path fill="#E0A953" d="M208.443,118.765l3.267-4.742c4.573-7.59,4.553-16.259,1.309-19.922c-1.961-2.218-6.207-4.11-10.455-4.11
				c-4.617,0-10.32,2.229-16.193,8.23c-5.928,6.059-10.553,10.384-6.529,12.008c1.959,0.789,3.431-0.79,3.431-0.79
				s1.842-2.392,5.383-6.165c3.265-3.477,7.834-4.736,7.834-4.736c5.427-1.906,10.986-0.203,11.306,4.732
				c0.328,5.062-2.487,10.436-5.752,14.538c-3.269,4.108-6.986,7.913-6.986,7.913s-7.844,8.227-11.434,13.281
				c-3.595,5.057,1.446,5.982,1.446,5.982h7.177c0,0,10.123-0.033,15.672,0c4.776,0.023,8.135-0.439,8.371-2.188
				c0.487-3.635-7.515-3.162-7.515-3.162c-5.51,0.023-3.728,0.023-11.106,0c-5.371-0.018-5.414-0.074-4.113-1.922
				c4.441-6.301,9.994-12.939,9.994-12.939L208.443,118.765z"/>
			<path fill="#E0A953" stroke="#000000" d="M163.536,143.479"/>
			<path fill="#E0A953" stroke="#000000" d="M173.029,132.816"/>
			<g>
				<path fill="#E0A953" d="M139.9,142.978c-0.33-1.666,8.656-10.75,8.656-10.75l-0.854,0.888l8.348-9.709l9.619-3.904
					c0,0-5.559,7.588-9,11.332c-3.44,3.746-7.166,7.981-11.283,12.248l-0.819,0.896c0,0-4.33,3.498-4.666-1.504"/>
			</g>
		</g>
	</g>
	<g id="logo_x5F_outlines">
		<g>
			<path fill="#FFFFFF" d="M38.599,53.2c0,0,22.981-17.652,25.979-17.984c2.998-0.334,10.661-2.668,11.992,4.662
				c0.539,2.974,1.135,8.642,1.652,14.322c0.756,8.312,1.346,16.652,1.346,16.652l1.002,10.025l0.994,9.959l1.771,9.326
				l2.334,14.336l4.666,21.668l3.668,13c0,0,3.332,11.332,9.545,12.955c5.479,1.432,18.986-11.326,18.986-11.326
				s4.332-2.334,4.662,0.996c0.336,3.334-13.654,12.326-13.654,12.326l-18.205,13.715c0,0-12.105,11.269-16.104,3.604
				c-3.993-7.662-8.323-52.625-8.323-52.625s-1.529-7.67-4.664-5.664c-8.326,5.328-16.655,15.322-16.655,15.322l-14.323,16.983
				l-8.661,11.994c0,0-2.664,6.659-1.667,13.987c1,7.328-14.654,5.662-15.988,2.33c-1.329-3.328,1.333-13.654,11.326-24.647
				c9.992-10.988,21.317-23.312,21.317-23.312l12.325-11.66l8.66-7.662c0,0,2.998-2.327,1.998-8.659
				c-0.998-6.33-6.994-23.98-6.994-23.98l-8.328-20.318c0,0-2.162-5.133-4.662-3.994c-3.664,1.664-11.324,6.326-14.656,8.658
				c-3.332,2.334-7.328,4.328-11.992,6.992c-5.316,3.041-12.451,0.746-2.33-6.992C21.278,63.86,38.599,53.2,38.599,53.2z"/>
			<path fill="#FFFFFF" d="M81.565,94.833c0,0,9.771-9.002,14.988-15.649c5.191-6.615,15.117-19.685,19.117-25.685
				c4.383-6.576,9.528-14.953,9.528-22.949c0-7.993-4.329-17.651,0.337-18.651c4.661-0.998,12.989,0.332,14.651,2.998
				c1.666,2.664,2.332,9.658-1.662,17.651c-3.998,7.998-20.521,29.619-20.521,29.619l-21.451,26.01l-12.988,15.652L81.565,94.833z"
				/>
			<path fill="#FFFFFF" d="M169.161,109c-0.824,10.166-8.931,16.486-19.318,16.486c-10.396,0-18.321-6.646-18.321-16.486
				c0-9.844,8.594-19.485,18.983-19.485C160.899,89.514,169.956,99.188,169.161,109z M140.344,106.834
				c0,6.986,4.479,12.654,9.998,12.654c5.519,0,9.988-5.668,9.988-12.654c0-6.992-4.47-12.662-9.988-12.662
				C144.823,94.172,140.344,99.842,140.344,106.834z"/>
			<path fill="#FFFFFF" d="M215.156,120.161"/>
			<path fill="#FFFFFF" d="M207.777,118.764l3.267-4.742c4.574-7.59,4.553-16.259,1.309-19.922
				c-1.959-2.217-6.205-4.109-10.453-4.109c-4.619,0-10.322,2.229-16.195,8.229c-5.926,6.059-10.551,10.385-6.529,12.009
				c1.959,0.789,3.431-0.79,3.431-0.79s1.842-2.391,5.383-6.165c3.265-3.476,7.834-4.737,7.834-4.737
				c5.427-1.906,10.986-0.203,11.306,4.733c0.328,5.062-2.487,10.435-5.752,14.538c-3.269,4.107-6.985,7.912-6.985,7.912
				s-7.845,8.227-11.435,13.281c-3.595,5.058,1.446,5.983,1.446,5.983h7.177c0,0,10.123-0.032,15.672,0
				c4.776,0.024,8.135-0.438,8.371-2.188c0.487-3.633-7.515-3.162-7.515-3.162c-5.511,0.023-3.728,0.023-11.106,0
				c-5.371-0.018-5.414-0.072-4.113-1.92c4.441-6.301,9.994-12.939,9.994-12.939L207.777,118.764z"/>
			<path fill="#FFFFFF" stroke="#000000" d="M161.87,143.478"/>
			<path fill="#FFFFFF" stroke="#000000" d="M171.363,132.815"/>
			<g>
				<path fill="#FFFFFF" d="M138.852,142.395c-0.33-1.666,8.656-10.75,8.656-10.75l-0.854,0.889l8.349-9.709l10-3.658
					c0,0-2.666,4-9.381,11.086c-3.5,3.691-7.166,7.98-11.283,12.248l-0.822,0.895c0,0-4.328,3.498-4.664-1.504"/>
			</g>
		</g>
		<g>
			<path fill="#8DCFE3" d="M133.967,167.187l4.188-0.672c0.262,1.052,0.74,1.925,1.438,2.616s1.619,1.039,2.768,1.039
				c1.156,0,2.049-0.275,2.68-0.828s0.945-1.27,0.945-2.155c0-0.479-0.102-0.914-0.297-1.306c-0.199-0.391-0.445-0.715-0.742-0.969
				c-0.297-0.256-0.693-0.512-1.188-0.767c-0.496-0.255-0.965-0.466-1.405-0.633c-0.442-0.167-0.992-0.38-1.647-0.642
				c-0.656-0.262-1.22-0.5-1.688-0.72c-0.49-0.237-0.91-0.461-1.259-0.663c-0.352-0.203-0.727-0.473-1.125-0.806
				c-0.401-0.333-0.729-0.688-0.979-1.062s-0.459-0.832-0.625-1.375c-0.166-0.541-0.25-1.135-0.25-1.781
				c0-1.02,0.211-1.939,0.635-2.758c0.422-0.817,0.99-1.479,1.711-1.983c0.719-0.505,1.521-0.888,2.414-1.147
				c0.891-0.261,1.83-0.392,2.818-0.392c1.75,0,3.295,0.453,4.633,1.358c1.34,0.906,2.236,2.047,2.695,3.422l-4.266,0.798
				c-0.513-1.208-1.531-1.812-3.062-1.812c-0.969,0-1.762,0.193-2.375,0.586c-0.613,0.391-0.922,1.033-0.922,1.93
				c0,0.416,0.143,0.802,0.422,1.156c0.281,0.354,0.682,0.668,1.195,0.943c0.516,0.275,1.021,0.518,1.516,0.721
				s1.066,0.426,1.721,0.672c0.648,0.244,1.144,0.445,1.478,0.602c0.594,0.281,1.112,0.559,1.562,0.828
				c0.446,0.271,0.891,0.602,1.327,0.992c0.438,0.39,0.796,0.808,1.07,1.25c0.274,0.441,0.498,0.966,0.664,1.57
				c0.166,0.604,0.25,1.266,0.25,1.982c0,2.053-0.757,3.691-2.267,4.922c-1.512,1.229-3.391,1.846-5.641,1.846
				c-2.18,0-4.045-0.623-5.604-1.867C135.199,170.838,134.27,169.208,133.967,167.187z"/>
			<path fill="#8DCFE3" d="M152.67,150.75h18.781v3.732h-7.142V173.5h-4.188v-19.018h-7.451V150.75z"/>
			<path fill="#8DCFE3" d="M187.124,150.75h4.28v11.906c0,3.551-0.752,6.321-2.258,8.311c-1.506,1.99-3.603,2.984-6.289,2.984
				c-2.679,0-4.769-0.994-6.272-2.984c-1.506-1.988-2.258-4.76-2.258-8.311V150.75h4.28v11.906c0,5.01,1.416,7.516,4.25,7.516
				c2.845,0,4.267-2.506,4.267-7.516V150.75z"/>
			<path fill="#8DCFE3" d="M212.327,161.75c0,2.219-0.4,4.222-1.203,6.008c-0.804,1.785-1.937,3.189-3.396,4.211
				c-1.465,1.021-3.129,1.531-4.992,1.531h-7.297v-22.75h7.297c1.885,0,3.562,0.494,5.031,1.482
				c1.469,0.989,2.596,2.316,3.383,3.982C211.934,157.883,212.327,159.729,212.327,161.75z M207.904,161.75
				c0-2.104-0.485-3.842-1.461-5.211c-0.976-1.371-2.211-2.057-3.711-2.057h-3.108v15.268h3.108c1.521,0,2.765-0.734,3.728-2.203
				S207.904,164.145,207.904,161.75z"/>
			<path fill="#8DCFE3" d="M215.764,173.5v-22.75h4.203v22.75H215.764z"/>
			<path fill="#8DCFE3" d="M223.764,161.717c0-1.043,0.104-2.08,0.312-3.116c0.207-1.036,0.557-2.062,1.047-3.078
				c0.488-1.017,1.094-1.911,1.811-2.688c0.721-0.776,1.635-1.402,2.742-1.883c1.109-0.479,2.342-0.72,3.695-0.72
				s2.586,0.239,3.695,0.72c1.107,0.479,2.021,1.104,2.74,1.875c0.721,0.771,1.32,1.666,1.807,2.688
				c0.484,1.021,0.83,2.047,1.039,3.077c0.209,1.031,0.312,2.072,0.312,3.125c0,1.113-0.104,2.223-0.312,3.32
				c-0.209,1.1-0.559,2.191-1.049,3.28c-0.488,1.089-1.094,2.044-1.811,2.867c-0.719,0.823-1.631,1.489-2.734,2
				s-2.334,0.767-3.688,0.767c-1.344,0-2.57-0.256-3.68-0.767c-1.111-0.511-2.023-1.177-2.742-2
				c-0.721-0.823-1.324-1.776-1.812-2.858c-0.49-1.084-0.842-2.178-1.055-3.281C223.872,163.941,223.764,162.833,223.764,161.717z
				 M238.561,161.717c0-0.959-0.086-1.866-0.258-2.727c-0.172-0.861-0.445-1.678-0.82-2.453c-0.375-0.777-0.912-1.396-1.615-1.858
				c-0.703-0.464-1.535-0.695-2.492-0.695c-0.771,0-1.461,0.156-2.07,0.47c-0.607,0.312-1.104,0.723-1.482,1.228
				c-0.383,0.505-0.699,1.103-0.953,1.788c-0.256,0.689-0.436,1.381-0.531,2.078c-0.1,0.699-0.148,1.422-0.148,2.172
				c0,0.812,0.053,1.603,0.156,2.367c0.104,0.767,0.281,1.522,0.531,2.272s0.566,1.399,0.953,1.953c0.385,0.554,0.883,1,1.492,1.345
				c0.607,0.344,1.293,0.516,2.055,0.516c0.77,0,1.461-0.172,2.07-0.516c0.607-0.345,1.104-0.791,1.482-1.345
				s0.697-1.203,0.953-1.953c0.254-0.75,0.432-1.508,0.531-2.272C238.51,163.319,238.561,162.532,238.561,161.717z"/>
			<path fill="#8DCFE3" d="M245.514,167.187l4.188-0.672c0.26,1.052,0.74,1.925,1.438,2.616s1.619,1.039,2.768,1.039
				c1.154,0,2.049-0.275,2.68-0.828s0.945-1.27,0.945-2.155c0-0.479-0.102-0.914-0.297-1.306c-0.197-0.391-0.445-0.715-0.742-0.969
				c-0.297-0.256-0.693-0.512-1.188-0.767c-0.496-0.255-0.965-0.466-1.406-0.633s-0.99-0.38-1.646-0.642s-1.219-0.5-1.689-0.72
				c-0.488-0.237-0.906-0.461-1.258-0.663c-0.35-0.203-0.725-0.473-1.125-0.806c-0.398-0.333-0.727-0.688-0.977-1.062
				s-0.459-0.832-0.625-1.375c-0.166-0.541-0.25-1.135-0.25-1.781c0-1.02,0.211-1.939,0.633-2.758
				c0.422-0.817,0.992-1.479,1.711-1.983s1.523-0.888,2.414-1.147c0.891-0.261,1.83-0.392,2.82-0.392
				c1.75,0,3.295,0.453,4.633,1.358c1.338,0.906,2.236,2.047,2.695,3.422l-4.268,0.798c-0.51-1.208-1.531-1.812-3.061-1.812
				c-0.971,0-1.764,0.193-2.375,0.586c-0.615,0.391-0.924,1.033-0.924,1.93c0,0.416,0.143,0.802,0.424,1.156
				c0.279,0.354,0.68,0.668,1.193,0.943c0.516,0.275,1.021,0.518,1.518,0.721c0.494,0.203,1.064,0.426,1.719,0.672
				c0.65,0.244,1.143,0.445,1.477,0.602c0.596,0.281,1.113,0.559,1.562,0.828c0.447,0.271,0.891,0.602,1.328,0.992
				c0.436,0.39,0.793,0.808,1.068,1.25c0.275,0.441,0.496,0.966,0.664,1.57c0.166,0.604,0.25,1.266,0.25,1.982
				c0,2.053-0.756,3.691-2.266,4.922c-1.512,1.229-3.391,1.846-5.641,1.846c-2.18,0-4.045-0.623-5.604-1.867
				C246.747,170.838,245.817,169.208,245.514,167.187z"/>
		</g>
	</g>
	<g id="Layer_6" display="none">
	</g>
</g>
</svg>
