<?xml version="1.0" encoding="utf-8"?>
<!-- Generator: Adobe Illustrator 16.0.0, SVG Export Plug-In . SVG Version: 6.00 Build 0)  -->
<!DOCTYPE svg PUBLIC "-//W3C//DTD SVG 1.1//EN" "http://www.w3.org/Graphics/SVG/1.1/DTD/svg11.dtd">
<svg version="1.1" id="Layer_1" xmlns="http://www.w3.org/2000/svg" xmlns:xlink="http://www.w3.org/1999/xlink" x="0px" y="0px"
	 width="325.625px" height="325.625px" viewBox="0 0 325.625 325.625" enable-background="new 0 0 325.625 325.625"
	 xml:space="preserve">
<g>
	<path fill="#FFFFFF" stroke="#FFFFFF" stroke-miterlimit="10" d="M147.919,280.097c-0.018,0.145-0.172,0.25-0.462,0.313
		c-0.291,0.063-0.667,0.172-1.126,0.322c-0.459,0.152-0.98,0.379-1.562,0.682c-0.582,0.304-1.156,0.759-1.725,1.365
		c-0.615,0.669-1.09,1.267-1.427,1.792c-0.338,0.526-0.503,1.215-0.497,2.067c0.022,0.184,0.08,0.357,0.174,0.522
		s0.268,0.299,0.523,0.399c0.551,0.063,1.053,0.074,1.506,0.033c0.451-0.04,0.891-0.123,1.314-0.247
		c0.427-0.123,0.845-0.269,1.256-0.435c0.412-0.165,0.838-0.333,1.277-0.503c0.666-0.328,1.226-0.618,1.678-0.873
		c0.449-0.254,0.818-0.47,1.104-0.647c0.286-0.179,0.522-0.302,0.712-0.371c0.189-0.068,0.359-0.056,0.514,0.039
		c-0.157,0.18-0.555,0.537-1.193,1.073c-0.639,0.537-1.42,1.074-2.344,1.613s-1.947,0.999-3.07,1.379s-2.244,0.492-3.363,0.335
		c-0.422-0.15-0.759-0.301-1.012-0.452c-0.254-0.149-0.428-0.502-0.521-1.056c-0.115-0.659-0.016-1.388,0.299-2.184
		c0.313-0.795,0.732-1.553,1.258-2.273c0.524-0.721,1.104-1.362,1.737-1.925c0.634-0.563,1.2-0.945,1.7-1.147
		c0.688-0.221,1.289-0.306,1.805-0.253C146.988,279.721,147.47,279.863,147.919,280.097z"/>
	<path fill="#FFFFFF" stroke="#FFFFFF" stroke-miterlimit="10" d="M153.955,280.781c0.017-0.217,0.143-0.247,0.378-0.091
		c0.235,0.155,0.475,0.318,0.721,0.488c-0.008,0.561-0.018,1.005-0.031,1.332c-0.013,0.327-0.035,0.636-0.064,0.923
		c-0.031,0.287-0.066,0.599-0.105,0.933c-0.041,0.335-0.089,0.778-0.145,1.329c0.324-0.499,0.689-0.948,1.096-1.346
		s0.891-0.713,1.455-0.946c0.562-0.232,1.207-0.357,1.932-0.377c0.725-0.017,1.568,0.092,2.535,0.328
		c-0.037,0.188-0.135,0.335-0.293,0.438c-0.16,0.104-0.49,0.144-0.991,0.12c-0.729-0.02-1.39,0.091-1.979,0.33
		c-0.592,0.24-1.119,0.548-1.583,0.921c-0.466,0.375-0.862,0.792-1.192,1.254s-0.609,0.891-0.837,1.286
		c-0.066,0.207-0.155,0.502-0.267,0.884c-0.113,0.382-0.217,0.789-0.313,1.222c-0.097,0.435-0.192,0.856-0.284,1.266
		c-0.092,0.41-0.137,0.737-0.134,0.982c0.001,0.123-0.071,0.2-0.216,0.233c-0.146,0.032-0.307,0.044-0.48,0.035
		c-0.176-0.011-0.332-0.053-0.469-0.128c-0.137-0.076-0.195-0.172-0.172-0.29c0.52-2.417,0.859-4.521,1.018-6.312
		S153.831,282.2,153.955,280.781z"/>
	<path fill="#FFFFFF" stroke="#FFFFFF" stroke-miterlimit="10" d="M166.154,283.936c0.077-0.016,0.292-0.062,0.649-0.139
		c0.355-0.075,0.642-0.066,0.857,0.025c0.719,0.042,1.252,0.272,1.601,0.689c0.348,0.418,0.31,1.162-0.112,2.231
		c-0.582,1.176-1.301,2.134-2.154,2.874c-0.854,0.741-1.846,1.433-2.977,2.075c0.188,0.645,0.527,1.025,1.016,1.143
		s1.014,0.088,1.579-0.089c0.565-0.178,1.124-0.433,1.679-0.768c0.555-0.334,1.006-0.631,1.354-0.888
		c0.559-0.382,1.006-0.708,1.344-0.979c0.336-0.271,0.697-0.604,1.084-1.003c0.078-0.04,0.121-0.03,0.127,0.03
		c0.008,0.061-0.008,0.149-0.043,0.267c-0.036,0.118-0.088,0.281-0.157,0.492c-0.09,0.16-0.178,0.303-0.265,0.427
		c-0.086,0.125-0.204,0.259-0.354,0.401c-0.149,0.144-0.347,0.312-0.589,0.506c-0.242,0.195-0.541,0.457-0.895,0.785
		c-0.402,0.301-0.791,0.596-1.167,0.887s-0.767,0.539-1.171,0.741c-0.406,0.205-0.842,0.333-1.308,0.386
		c-0.466,0.055-0.991,0.006-1.577-0.145c-0.479-0.213-0.857-0.428-1.137-0.647c-0.278-0.218-0.49-0.437-0.631-0.655
		c-0.143-0.217-0.242-0.414-0.301-0.588s-0.096-0.321-0.109-0.444c-0.08-0.488-0.069-1.138,0.031-1.948
		c0.098-0.811,0.443-1.84,1.031-3.087c0.383-0.639,0.783-1.176,1.195-1.607C165.169,284.478,165.636,284.153,166.154,283.936z
		 M163.938,290.131c0.336-0.138,0.734-0.336,1.194-0.595s0.899-0.568,1.319-0.927c0.42-0.359,0.795-0.764,1.123-1.216
		s0.529-0.939,0.602-1.464c0.107-0.351,0.117-0.604,0.033-0.756c-0.044-0.076-0.09-0.116-0.139-0.121
		c-0.403-0.229-0.83-0.209-1.277,0.062c-0.449,0.272-0.873,0.68-1.272,1.221s-0.749,1.154-1.048,1.838
		C164.173,288.857,163.995,289.51,163.938,290.131z"/>
	<path fill="#FFFFFF" stroke="#FFFFFF" stroke-miterlimit="10" d="M182.13,284.055c-0.021,0.145-0.072,0.446-0.15,0.903
		c-0.078,0.458-0.16,0.993-0.248,1.606c-0.088,0.614-0.162,1.258-0.223,1.932c-0.062,0.673-0.094,1.311-0.094,1.91
		c-0.002,0.6,0.045,1.109,0.141,1.527s0.242,0.674,0.443,0.766c0.576,0.253,1.158,0.151,1.744-0.304
		c0.588-0.455,1.27-1.146,2.047-2.074c0.074-0.001,0.082,0.095,0.024,0.288c-0.06,0.193-0.155,0.405-0.286,0.635
		c-0.133,0.231-0.265,0.462-0.396,0.692c-0.133,0.23-0.234,0.382-0.308,0.456c-0.194,0.244-0.474,0.52-0.841,0.826
		c-0.367,0.308-0.76,0.555-1.178,0.743c-0.42,0.188-0.82,0.273-1.205,0.257c-0.387-0.016-0.707-0.226-0.963-0.629
		c-0.13-0.286-0.211-0.639-0.244-1.058c-0.033-0.42-0.041-0.846-0.023-1.278c0.016-0.432,0.045-0.829,0.088-1.189
		c0.043-0.361,0.074-0.626,0.097-0.795c-0.503,0.946-1.082,1.846-1.735,2.699c-0.654,0.853-1.301,1.525-1.936,2.018
		c-0.637,0.492-1.228,0.762-1.773,0.808c-0.545,0.047-0.973-0.251-1.283-0.894c-0.186-0.62-0.199-1.322-0.041-2.105
		c0.16-0.783,0.407-1.489,0.742-2.12c0.504-0.874,1.035-1.677,1.592-2.407c0.559-0.731,1.154-1.354,1.79-1.871
		s1.306-0.896,2.008-1.137C180.622,284.019,181.358,283.949,182.13,284.055z M175.306,293.332c0.25,0.043,0.643-0.145,1.182-0.562
		c0.538-0.419,1.098-0.999,1.68-1.743c0.582-0.743,1.105-1.605,1.57-2.587c0.465-0.98,0.762-2.013,0.891-3.096
		c-0.1,0.002-0.242,0.005-0.428,0.009c-0.188,0.003-0.402,0.079-0.648,0.229c-0.932,0.618-1.725,1.335-2.379,2.152
		s-1.161,1.606-1.52,2.369c-0.357,0.763-0.567,1.446-0.631,2.047C174.96,292.751,175.054,293.145,175.306,293.332z"/>
	<path fill="#FFFFFF" stroke="#FFFFFF" stroke-miterlimit="10" d="M191.552,283.076c1.051-0.201,2.082-0.406,3.095-0.616
		c1.013-0.208,2.067-0.429,3.164-0.66c0.249-0.006,0.425,0.099,0.526,0.316s0.02,0.366-0.244,0.447
		c-0.9,0.208-1.932,0.468-3.094,0.778c-1.163,0.312-2.258,0.664-3.285,1.057c0.139,0.732,0.257,1.486,0.352,2.26
		c0.096,0.774,0.208,1.533,0.337,2.279s0.292,1.465,0.489,2.152c0.197,0.69,0.455,1.317,0.775,1.883
		c0.395,0.362,0.768,0.559,1.123,0.587c0.354,0.029,0.678-0.029,0.973-0.174s0.559-0.347,0.789-0.604s0.432-0.506,0.603-0.745
		c0.151-0.188,0.294-0.205,0.425-0.053c0.131,0.154,0.057,0.417-0.222,0.79c-0.128,0.185-0.29,0.387-0.489,0.604
		c-0.198,0.218-0.443,0.411-0.735,0.58s-0.627,0.295-1.004,0.377c-0.378,0.083-0.796,0.092-1.254,0.027
		c-0.585-0.073-1.058-0.463-1.419-1.168c-0.362-0.705-0.672-1.544-0.928-2.516c-0.258-0.972-0.477-1.991-0.658-3.057
		c-0.18-1.066-0.36-2.023-0.539-2.871c-1.072,0.228-1.857,0.409-2.354,0.543c-0.497,0.133-0.854,0.226-1.072,0.276
		c-0.219,0.051-0.369,0.058-0.449,0.019c-0.079-0.038-0.229-0.129-0.445-0.271c0.01-0.123,0.002-0.236-0.023-0.342
		s-0.037-0.195-0.033-0.268c0.004-0.073,0.045-0.15,0.122-0.233c0.077-0.082,0.235-0.161,0.477-0.239
		c0.358-0.141,0.888-0.261,1.589-0.358c0.701-0.099,1.378-0.235,2.031-0.413c-0.118-0.759-0.217-1.352-0.293-1.777
		c-0.078-0.426-0.148-0.798-0.213-1.117c-0.064-0.317-0.121-0.631-0.172-0.939c-0.049-0.308-0.105-0.712-0.168-1.213
		c-0.014-0.119,0.043-0.216,0.172-0.292c0.127-0.076,0.277-0.131,0.448-0.165c0.171-0.033,0.335-0.028,0.489,0.013
		c0.155,0.042,0.266,0.119,0.329,0.232c0.101,0.205,0.188,0.515,0.265,0.929c0.074,0.414,0.147,0.852,0.217,1.314
		s0.133,0.934,0.191,1.409C191.498,282.334,191.534,282.74,191.552,283.076z"/>
	<path fill="#FFFFFF" stroke="#FFFFFF" stroke-miterlimit="10" d="M201.823,281.812c0.066-0.041,0.257-0.154,0.57-0.34
		c0.312-0.185,0.587-0.269,0.82-0.25c0.695-0.189,1.273-0.143,1.737,0.142c0.464,0.285,0.665,1.003,0.606,2.15
		c-0.176,1.301-0.549,2.438-1.122,3.412c-0.571,0.976-1.292,1.947-2.158,2.918c0.386,0.55,0.827,0.803,1.327,0.758
		s0.99-0.241,1.469-0.59c0.479-0.348,0.928-0.769,1.346-1.264c0.418-0.493,0.751-0.918,0.999-1.273
		c0.407-0.54,0.728-0.992,0.96-1.355s0.468-0.796,0.707-1.297c0.061-0.064,0.104-0.067,0.131-0.013
		c0.025,0.056,0.039,0.145,0.043,0.267c0.004,0.123,0.006,0.295,0.008,0.517c-0.033,0.181-0.07,0.345-0.113,0.489
		c-0.041,0.146-0.111,0.311-0.207,0.494c-0.098,0.184-0.229,0.405-0.396,0.667c-0.168,0.262-0.367,0.605-0.598,1.03
		c-0.285,0.413-0.559,0.817-0.822,1.213s-0.555,0.755-0.873,1.077s-0.691,0.584-1.115,0.783c-0.426,0.199-0.938,0.321-1.541,0.365
		c-0.521-0.048-0.949-0.131-1.283-0.249s-0.604-0.258-0.808-0.419c-0.205-0.161-0.362-0.315-0.474-0.462
		c-0.111-0.146-0.193-0.273-0.244-0.386c-0.232-0.438-0.431-1.057-0.595-1.856c-0.165-0.8-0.167-1.885-0.007-3.255
		c0.158-0.728,0.364-1.363,0.618-1.904C201.063,282.64,201.401,282.183,201.823,281.812z M201.702,288.389
		c0.275-0.236,0.59-0.552,0.943-0.945c0.352-0.392,0.67-0.825,0.953-1.299c0.283-0.475,0.508-0.979,0.676-1.512
		c0.166-0.532,0.2-1.059,0.103-1.579c-0.011-0.367-0.081-0.609-0.211-0.727c-0.065-0.058-0.122-0.082-0.171-0.07
		c-0.453-0.089-0.852,0.067-1.189,0.468c-0.338,0.401-0.609,0.922-0.814,1.562c-0.206,0.641-0.341,1.334-0.407,2.076
		C201.519,287.107,201.558,287.782,201.702,288.389z"/>
</g>
<path fill="none" d="M58.229,162.886c0-29.651,12.285-56.43,32.035-75.537l0.043,0.031l4-3.5l-0.129-0.133
	c18.479-16.16,42.668-25.955,69.145-25.955c25.795,0,49.414,9.299,67.703,24.72l-0.396,0.519l5.428,4.35l0.152-0.199
	c19.854,19.118,32.207,45.968,32.207,75.705c0,28.583-11.416,54.496-29.93,73.441l-4.68,4.053l0.207,0.271
	c-18.666,16.979-43.469,27.328-70.691,27.328c-25.764,0-49.357-9.276-67.637-24.665l-3.879-3.685l-0.17,0.096
	C71.084,220.544,58.229,193.218,58.229,162.886z"/>
<path fill="#9C3995" d="M259.348,47.284l1.307,24.478l-22.389,1.294l-7.24,9.456c-18.289-15.421-41.908-24.72-67.703-24.72
	c-26.477,0-50.666,9.795-69.145,25.955l-7.021-7.206L86.832,50.39l-28.404,1.286l-7.896-6.763C79.742,17.085,119.283,0,162.812,0
	c40.379,0,77.318,14.706,105.771,39.045l-1.592-1.212L259.348,47.284z"/>
<path fill="#969796" d="M80.152,57.926l0.59,22.42l9.521,7.003c-19.75,19.107-32.035,45.886-32.035,75.537
	c0,30.332,12.855,57.658,33.408,76.84l-9.271,5.283l-29.671-7.754l-3.421,26.427l-9.414,5.854C15.031,240.958,0,203.641,0,162.812
	c0-44.052,17.504-84.011,45.926-113.321l9.719,8.973L80.152,57.926z"/>
<path fill="#E1D946" d="M242.172,267.711l4.58-21.952l-7.641-9.973l-0.625,0.541c18.514-18.945,29.93-44.858,29.93-73.441
	c0-29.737-12.354-56.587-32.207-75.705l6.061-7.833l26.127-1.146l-2.178-28.35l5.889-7.712
	c32.871,29.789,53.518,72.819,53.518,120.673c0,47.233-20.121,89.761-52.25,119.501l-7.229-9.489L242.172,267.711z"/>
<path fill="#3663AE" d="M58.48,245.333l25.305,6.997l13.021-7.95l-1.121-1.065c18.279,15.389,41.873,24.665,67.637,24.665
	c27.223,0,52.025-10.35,70.691-27.328l5.621,7.334l-5.695,25.524l27.939,5.28l6.076,8.322
	c-28.369,24.02-65.061,38.513-105.143,38.513c-46.586,0-88.598-19.57-118.275-50.934l10.189-6.104L58.48,245.333z"/>
<path fill="#FFFFFF" d="M90.307,87.38l-0.043-0.031c1.273-1.232,2.578-2.434,3.914-3.602l0.129,0.133L90.307,87.38z"/>
<path fill="#FFFFFF" d="M86.832,50.39l0.324,26.151l7.021,7.206c-1.336,1.168-2.641,2.369-3.914,3.602l-9.521-7.003l-0.59-22.42
	l-24.508,0.538l-9.719-8.973c1.508-1.555,3.037-3.085,4.605-4.578l7.896,6.763L86.832,50.39z"/>
<path fill="#FFFFFF" d="M230.629,83.03l0.396-0.519c1.779,1.5,3.51,3.057,5.184,4.669l-0.152,0.199L230.629,83.03z"/>
<path fill="#FFFFFF" d="M268.396,78.201l-26.127,1.146l-6.061,7.833c-1.674-1.612-3.404-3.169-5.184-4.669l7.24-9.456l22.389-1.294
	l-1.307-24.478l7.645-9.451l1.592,1.212c1.188,1.017,2.365,2.045,3.523,3.095l-5.889,7.712L268.396,78.201z"/>
<path fill="#FFFFFF" d="M273.807,282.88l-5.6,4.579l-0.252-0.347c1.842-1.561,3.648-3.159,5.42-4.799L273.807,282.88z"/>
<path fill="#FFFFFF" d="M238.486,236.327c-1.449,1.483-2.938,2.929-4.473,4.324l-0.207-0.271L238.486,236.327z"/>
<path fill="#FFFFFF" d="M233.939,273.51l5.695-25.524l-5.621-7.334c1.535-1.396,3.023-2.841,4.473-4.324l0.625-0.541l7.641,9.973
	l-4.58,21.952l23.975,5.113l7.229,9.489c-1.771,1.64-3.578,3.238-5.42,4.799l-6.076-8.322L233.939,273.51z"/>
<path fill="#FFFFFF" d="M95.686,243.314c-1.381-1.161-2.73-2.358-4.049-3.589l0.17-0.096L95.686,243.314z"/>
<path fill="#FFFFFF" d="M281.088,274.691l0.73,0.438l4.5-5.25l-0.553-0.344C284.244,271.289,282.682,273.006,281.088,274.691z"/>
<path fill="#FFFFFF" d="M49.273,263.682l3.361-27.176l29.73,8.503l9.271-5.283c1.318,1.23,2.668,2.428,4.049,3.589l1.121,1.065
	l-13.021,7.95l-26.305-6.997l-2.754,23.255l-10.189,6.104c-1.594-1.686-3.156-3.402-4.678-5.155L49.273,263.682z"/>
<g>
	<path fill="#070707" d="M289.511,132.254l0.559,2.115l-0.113,0.03c-0.568,0.147-1.197,0.081-1.885-0.198
		c-0.689-0.279-1.279-0.728-1.77-1.343c-0.488-0.616-0.863-1.415-1.121-2.397c-0.496-1.879-0.285-3.481,0.633-4.805
		c0.918-1.325,2.424-2.262,4.521-2.809c2.09-0.546,3.859-0.465,5.312,0.241c1.453,0.707,2.426,1.999,2.922,3.878
		c0.258,0.982,0.326,1.86,0.203,2.637c-0.125,0.776-0.396,1.448-0.816,2.018c-0.422,0.57-0.957,0.939-1.607,1.11l-0.113,0.028
		l-0.559-2.116l0.115-0.029c0.467-0.098,0.818-0.408,1.051-0.932c0.236-0.523,0.234-1.236-0.004-2.139
		c-0.281-1.071-0.908-1.868-1.879-2.393c-0.973-0.523-2.32-0.56-4.047-0.108c-1.732,0.452-2.895,1.144-3.482,2.074
		c-0.59,0.93-0.742,1.931-0.459,3.003c0.236,0.902,0.586,1.52,1.045,1.849c0.459,0.33,0.92,0.435,1.381,0.313L289.511,132.254z"/>
	<path fill="#070707" d="M287.745,140.604l-0.363-2.146l12.934-2.164l0.361,2.146l-2.279,0.382c0.717,0.253,1.293,0.564,1.729,0.934
		c0.434,0.367,0.787,0.778,1.061,1.232c0.27,0.453,0.447,0.932,0.533,1.437c0.078,0.456,0.078,0.861,0.002,1.214l-2.232,0.375
		c0.158-0.562,0.188-1.134,0.09-1.718c-0.141-0.827-0.631-1.57-1.473-2.228c-0.84-0.657-2.164-0.835-3.971-0.533L287.745,140.604z"
		/>
	<path fill="#070707" d="M292.929,156.279l0.162,2.17l-0.117,0.009c-0.578,0.043-1.184-0.14-1.818-0.547s-1.137-0.971-1.504-1.688
		c-0.367-0.719-0.588-1.561-0.66-2.524c-0.145-1.95,0.387-3.503,1.596-4.656c1.209-1.154,2.795-1.805,4.764-1.949
		c2.012-0.148,3.723,0.289,5.131,1.312c1.406,1.023,2.176,2.419,2.307,4.185c0.072,0.972-0.076,1.868-0.445,2.688
		c-0.371,0.82-0.994,1.493-1.869,2.019s-2.125,0.849-3.746,0.968l-0.727,0.054l-0.678-9.064c-1.398,0.104-2.521,0.555-3.373,1.351
		c-0.85,0.798-1.227,1.844-1.131,3.139c0.07,0.93,0.307,1.596,0.709,1.996s0.83,0.584,1.283,0.551L292.929,156.279z
		 M296.972,149.269l0.512,6.851l0.258-0.018c0.609-0.046,1.189-0.231,1.742-0.558s0.949-0.75,1.189-1.271
		c0.238-0.521,0.334-1.113,0.285-1.779c-0.061-0.789-0.441-1.492-1.143-2.11S298.167,149.394,296.972,149.269z"/>
	<path fill="#070707" d="M289.519,170.35c0.713-0.202,1.322-0.294,1.83-0.277c-0.914-0.958-1.488-1.771-1.719-2.436
		c-0.232-0.666-0.338-1.298-0.318-1.898c0.033-1.01,0.383-1.866,1.043-2.569s1.551-1.036,2.668-0.998
		c1.266,0.043,2.225,0.587,2.877,1.632s1.188,2.824,1.602,5.34l0.186,1.146l1.479,0.051c0.805,0.026,1.379-0.212,1.721-0.72
		c0.342-0.506,0.525-1.123,0.551-1.851c0.029-0.869-0.148-1.556-0.529-2.058c-0.383-0.501-0.84-0.761-1.373-0.778l-0.188-0.007
		l0.082-2.361l0.176,0.006c0.578,0.02,1.168,0.278,1.77,0.776s1.047,1.147,1.332,1.949c0.287,0.8,0.412,1.67,0.383,2.608
		c-0.033,0.931-0.211,1.773-0.533,2.526s-0.742,1.297-1.258,1.63c-0.516,0.335-1.471,0.478-2.861,0.431l-5.088-0.175
		c-0.555-0.019-1.139-0.025-1.754-0.018c-0.613,0.005-1.332,0.12-2.152,0.342L289.519,170.35z M296.138,170.236l-0.143-0.637
		c-0.467-2.145-0.932-3.521-1.396-4.131c-0.465-0.61-1.031-0.927-1.703-0.949c-0.344-0.012-0.666,0.065-0.969,0.232
		c-0.303,0.166-0.541,0.419-0.717,0.759s-0.27,0.679-0.281,1.018c-0.02,0.585,0.139,1.168,0.475,1.747s0.795,1.036,1.377,1.372
		c0.584,0.336,1.268,0.517,2.057,0.545L296.138,170.236z"/>
	<path fill="#070707" d="M289.849,184.478l-1.816-0.239c-0.115-1.085-0.137-1.906-0.064-2.463c0.107-0.805,0.365-1.507,0.777-2.11
		c0.41-0.603,0.949-1.03,1.615-1.285c0.664-0.254,1.676-0.292,3.033-0.113l6.682,0.881l0.299-2.25l1.803,0.237l-0.297,2.251
		l3.072,0.404l-0.285,2.157l-3.072-0.404l-0.5,3.779l-1.805-0.237l0.5-3.78l-6.064-0.8c-1.148-0.151-1.957-0.167-2.426-0.049
		c-0.471,0.119-0.836,0.356-1.096,0.712c-0.26,0.354-0.426,0.799-0.496,1.333C289.651,182.925,289.698,183.585,289.849,184.478z"/>
	<path fill="#070707" d="M288.817,196.32l-0.502,2.117l-0.115-0.027c-0.562-0.133-1.086-0.489-1.568-1.067
		c-0.482-0.579-0.789-1.265-0.922-2.062c-0.133-0.795-0.09-1.664,0.133-2.604c0.451-1.903,1.428-3.224,2.93-3.961
		s3.213-0.881,5.133-0.428c1.965,0.463,3.463,1.394,4.496,2.791c1.031,1.397,1.344,2.959,0.934,4.684
		c-0.225,0.947-0.637,1.757-1.238,2.427s-1.398,1.125-2.391,1.363c-0.994,0.239-2.283,0.172-3.867-0.202l-0.709-0.166l2.096-8.846
		c-1.363-0.32-2.572-0.229-3.623,0.275c-1.053,0.504-1.729,1.389-2.029,2.65c-0.213,0.909-0.191,1.615,0.072,2.117
		c0.264,0.503,0.615,0.806,1.057,0.91L288.817,196.32z M294.794,190.851l-1.584,6.685l0.252,0.061
		c0.594,0.139,1.203,0.137,1.828-0.009c0.627-0.146,1.133-0.43,1.518-0.854c0.387-0.425,0.656-0.962,0.811-1.612
		c0.182-0.769,0.033-1.554-0.449-2.354C296.687,191.967,295.896,191.327,294.794,190.851z"/>
</g>
<g>
	<path fill="#F7F6F6" d="M139.701,37.271l-2.141,0.409l-3.551-18.578l2.141-0.409L139.701,37.271z"/>
	<path fill="#F7F6F6" d="M151.979,32.239l2.168-0.229l0.013,0.115c0.061,0.575-0.104,1.187-0.491,1.832
		c-0.388,0.646-0.936,1.163-1.645,1.552c-0.708,0.39-1.544,0.635-2.506,0.736c-1.949,0.205-3.521-0.277-4.714-1.447
		s-1.894-2.735-2.1-4.693c-0.212-2.005,0.174-3.724,1.155-5.159c0.98-1.434,2.353-2.246,4.118-2.431
		c0.971-0.104,1.872,0.019,2.704,0.363c0.832,0.344,1.525,0.944,2.08,1.802c0.553,0.855,0.916,2.094,1.086,3.709l0.076,0.723
		l-9.056,0.954c0.146,1.391,0.633,2.498,1.458,3.322c0.824,0.825,1.883,1.168,3.176,1.032c0.931-0.098,1.59-0.354,1.978-0.768
		s0.56-0.847,0.512-1.298L151.979,32.239z M144.834,28.42l6.844-0.723l-0.026-0.256c-0.064-0.605-0.268-1.18-0.612-1.721
		c-0.344-0.541-0.78-0.923-1.309-1.146c-0.528-0.223-1.125-0.3-1.792-0.229c-0.787,0.082-1.479,0.482-2.076,1.202
		C145.265,26.267,144.922,27.225,144.834,28.42z"/>
	<path fill="#F7F6F6" d="M166.473,35.247c-0.221-0.705-0.328-1.311-0.325-1.819c-0.936,0.937-1.734,1.53-2.396,1.778
		c-0.66,0.249-1.29,0.37-1.893,0.364c-1.012-0.009-1.879-0.333-2.6-0.975c-0.722-0.643-1.077-1.521-1.067-2.637
		c0.01-1.265,0.53-2.234,1.561-2.912c1.029-0.678,2.798-1.256,5.306-1.734l1.144-0.212l0.013-1.478
		c0.008-0.804-0.247-1.371-0.764-1.699s-1.139-0.496-1.868-0.502c-0.872-0.009-1.555,0.186-2.047,0.579
		c-0.492,0.396-0.74,0.858-0.745,1.39l-0.001,0.187l-2.368-0.021l0.002-0.176c0.005-0.578,0.249-1.174,0.732-1.786
		c0.483-0.614,1.122-1.073,1.917-1.379c0.794-0.306,1.662-0.454,2.604-0.446c0.933,0.008,1.781,0.164,2.543,0.467
		c0.763,0.303,1.318,0.708,1.666,1.214c0.348,0.507,0.516,1.455,0.504,2.845l-0.044,5.08c-0.005,0.555,0.004,1.139,0.025,1.752
		c0.022,0.612,0.154,1.326,0.398,2.14L166.473,35.247z M166.189,28.646l-0.634,0.158c-2.135,0.52-3.503,1.019-4.103,1.497
		c-0.599,0.479-0.9,1.053-0.906,1.724c-0.003,0.343,0.082,0.663,0.257,0.961c0.175,0.297,0.435,0.529,0.779,0.695
		c0.346,0.168,0.687,0.252,1.025,0.255c0.588,0.006,1.167-0.167,1.738-0.517c0.572-0.351,1.019-0.82,1.339-1.41
		c0.322-0.59,0.486-1.278,0.492-2.065L166.189,28.646z"/>
	<path fill="#F7F6F6" d="M174.935,35.835l-2.168-0.229l1.366-13.019l2.167,0.228l-0.241,2.296c0.437-0.621,0.891-1.092,1.363-1.412
		c0.472-0.319,0.962-0.549,1.473-0.688c0.509-0.14,1.02-0.183,1.529-0.129c0.461,0.049,0.853,0.156,1.174,0.322l-0.236,2.25
		c-0.499-0.303-1.044-0.486-1.633-0.548c-0.837-0.087-1.685,0.185-2.544,0.817s-1.385,1.857-1.575,3.677L174.935,35.835z"/>
	<path fill="#F7F6F6" d="M185.021,37.207l-2.135-0.439l2.639-12.82l2.135,0.438l-0.456,2.216c0.595-0.604,1.139-1.031,1.633-1.279
		c0.494-0.25,0.99-0.413,1.489-0.49c0.498-0.076,1.03-0.057,1.597,0.06c0.804,0.165,1.49,0.479,2.062,0.938
		c0.571,0.461,0.968,1.047,1.188,1.759c0.22,0.712,0.186,1.771-0.104,3.179l-1.678,8.16l-2.137-0.438l1.49-7.243
		c0.237-1.149,0.327-1.978,0.273-2.487c-0.055-0.51-0.276-0.945-0.664-1.309c-0.389-0.363-0.842-0.598-1.362-0.705
		c-0.627-0.129-1.263-0.068-1.904,0.182c-0.642,0.252-1.201,0.671-1.677,1.259c-0.476,0.589-0.84,1.495-1.091,2.72L185.021,37.207z"
		/>
</g>
<g>
	<path fill="#010101" d="M43.015,121.049l-0.679,2.096l-12.314-4.018l0.68-2.096L43.015,121.049z M45.75,121.941l2.061,0.674
		l-0.679,2.094l-2.062-0.674L45.75,121.941z"/>
	<path fill="#010101" d="M28.202,132.99l-1.758-0.428c0.008-1.104,0.078-1.932,0.213-2.482c0.195-0.799,0.528-1.479,1-2.043
		c0.472-0.562,1.05-0.938,1.731-1.125c0.683-0.188,1.682-0.121,2.996,0.197l6.468,1.574l0.545-2.232l1.747,0.426l-0.545,2.23
		l2.975,0.725l-0.523,2.139l-2.975-0.725l-0.916,3.75l-1.746-0.424l0.916-3.75l-5.871-1.428c-1.112-0.27-1.905-0.369-2.381-0.299
		c-0.475,0.072-0.859,0.271-1.155,0.604c-0.296,0.33-0.508,0.76-0.637,1.289C28.183,131.41,28.154,132.076,28.202,132.99z"/>
	<path fill="#010101" d="M27.541,146.725l-0.294,2.182l-0.115-0.016c-0.567-0.072-1.116-0.375-1.646-0.904s-0.897-1.188-1.104-1.973
		s-0.244-1.664-0.114-2.633c0.265-1.961,1.101-3.393,2.51-4.293c1.409-0.904,3.08-1.23,5.013-0.98
		c1.979,0.254,3.542,1.029,4.691,2.324c1.148,1.295,1.603,2.83,1.363,4.607c-0.132,0.979-0.462,1.834-0.99,2.572
		s-1.271,1.279-2.227,1.625c-0.955,0.346-2.23,0.418-3.826,0.211l-0.713-0.092l1.227-9.113c-1.373-0.178-2.555,0.043-3.542,0.664
		c-0.989,0.619-1.571,1.58-1.746,2.883c-0.126,0.936-0.036,1.643,0.271,2.119s0.682,0.744,1.127,0.801L27.541,146.725z
		 M32.908,140.588l-0.927,6.889l0.253,0.031c0.598,0.078,1.197,0.01,1.801-0.203c0.602-0.213,1.073-0.553,1.413-1.02
		c0.34-0.469,0.556-1.037,0.646-1.707c0.106-0.793-0.115-1.564-0.666-2.318C34.878,141.506,34.038,140.949,32.908,140.588z"/>
	<path fill="#010101" d="M23.489,156.697l0.074-2.199l12.964,0.318l-0.074,2.197l-2.287-0.055c0.646,0.387,1.143,0.805,1.491,1.254
		s0.609,0.924,0.782,1.426c0.172,0.5,0.25,1.01,0.232,1.527c-0.016,0.469-0.096,0.871-0.238,1.207l-2.24-0.055
		c0.266-0.527,0.408-1.09,0.429-1.688c0.029-0.848-0.299-1.68-0.984-2.492c-0.685-0.812-1.932-1.242-3.743-1.287L23.489,156.697z"/>
	<path fill="#010101" d="M23.85,174.432c0.681-0.281,1.272-0.441,1.775-0.479c-0.994-0.863-1.637-1.617-1.929-2.26
		c-0.292-0.645-0.458-1.27-0.495-1.873c-0.064-1.02,0.196-1.918,0.779-2.697s1.426-1.209,2.529-1.293
		c1.25-0.094,2.248,0.35,2.99,1.328c0.743,0.979,1.44,2.709,2.092,5.191l0.291,1.133l1.461-0.109
		c0.795-0.061,1.337-0.363,1.625-0.91c0.289-0.545,0.409-1.188,0.363-1.92c-0.055-0.877-0.294-1.547-0.719-2.012
		c-0.425-0.461-0.899-0.672-1.425-0.633l-0.186,0.014l-0.148-2.381l0.173-0.014c0.572-0.043,1.179,0.152,1.818,0.588
		c0.641,0.436,1.141,1.039,1.5,1.812c0.357,0.773,0.567,1.635,0.626,2.58c0.06,0.941-0.035,1.807-0.28,2.598
		s-0.605,1.383-1.082,1.775c-0.476,0.391-1.4,0.639-2.774,0.742l-5.026,0.379c-0.548,0.041-1.124,0.1-1.729,0.172
		c-0.604,0.072-1.3,0.266-2.087,0.578L23.85,174.432z M30.353,173.598l-0.202-0.625c-0.665-2.104-1.255-3.438-1.771-4
		s-1.104-0.818-1.767-0.768c-0.34,0.025-0.651,0.137-0.933,0.338c-0.282,0.199-0.493,0.48-0.633,0.842
		c-0.14,0.359-0.199,0.711-0.179,1.051c0.037,0.592,0.249,1.16,0.636,1.705c0.386,0.547,0.882,0.955,1.487,1.23
		c0.607,0.273,1.299,0.381,2.077,0.322L30.353,173.598z"/>
	<path fill="#010101" d="M27.84,190.178l-1.787,0.322c-0.424-1.012-0.682-1.797-0.773-2.355c-0.131-0.807-0.09-1.562,0.126-2.27
		c0.215-0.705,0.601-1.281,1.157-1.729c0.555-0.449,1.502-0.791,2.838-1.031l6.576-1.18l-0.368-2.26l1.776-0.318l0.368,2.258
		l3.024-0.541l0.354,2.164l-3.024,0.545l0.618,3.793l-1.775,0.32l-0.619-3.795l-5.969,1.07c-1.131,0.203-1.9,0.432-2.311,0.689
		s-0.688,0.598-0.831,1.018c-0.144,0.422-0.172,0.9-0.084,1.436C27.205,188.742,27.439,189.363,27.84,190.178z"/>
	<path fill="#010101" d="M32.488,202.928l0.564,2.117l-0.113,0.031c-0.553,0.158-1.176,0.098-1.868-0.176
		c-0.693-0.277-1.285-0.734-1.776-1.373s-0.862-1.428-1.112-2.367c-0.505-1.902-0.279-3.549,0.679-4.934
		c0.959-1.387,2.38-2.348,4.264-2.885c1.928-0.551,3.672-0.461,5.229,0.271c1.559,0.73,2.566,1.957,3.024,3.684
		c0.252,0.947,0.274,1.863,0.067,2.75c-0.206,0.887-0.686,1.678-1.437,2.373c-0.752,0.697-1.905,1.268-3.46,1.711l-0.695,0.199
		l-2.352-8.844c-1.338,0.383-2.346,1.053-3.023,2.014c-0.678,0.959-0.848,2.072-0.512,3.334c0.241,0.908,0.595,1.521,1.061,1.836
		c0.467,0.316,0.916,0.414,1.35,0.289L32.488,202.928z M35.107,195.17l1.777,6.686l0.247-0.07c0.583-0.166,1.111-0.467,1.587-0.9
		c0.477-0.434,0.782-0.934,0.918-1.496c0.135-0.564,0.117-1.172-0.057-1.82c-0.204-0.77-0.705-1.391-1.502-1.863
		S36.291,195.057,35.107,195.17z"/>
</g>
<g>
	<path fill="#FFFFFF" d="M153.614,287.379l2.176,0.225l-1.199,12.987l-2.176-0.225l0.209-2.267c-0.523,0.65-1.021,1.127-1.496,1.431
		c-0.477,0.303-0.955,0.519-1.438,0.649c-0.482,0.13-1.002,0.167-1.555,0.11c-1.225-0.127-2.232-0.572-3.025-1.339
		c-0.791-0.767-1.092-2.177-0.9-4.23l0.76-8.232l2.176,0.224l-0.676,7.326c-0.176,1.898-0.025,3.073,0.455,3.521
		c0.48,0.448,1.102,0.712,1.863,0.792c0.66,0.068,1.299-0.057,1.916-0.373c0.619-0.315,1.133-0.795,1.541-1.438
		c0.408-0.642,0.668-1.568,0.779-2.777L153.614,287.379z"/>
	<path fill="#FFFFFF" d="M159.489,297.383l2.186-0.004v0.047c0.008,0.562,0.227,1.026,0.66,1.396
		c0.432,0.369,1.156,0.553,2.176,0.553c0.893-0.003,1.613-0.222,2.162-0.658c0.551-0.438,0.82-0.953,0.814-1.544
		c-0.012-0.804-0.564-1.371-1.658-1.704l-1.113-0.338l-0.738-0.232l-1.512-0.467c-1.73-0.628-2.604-1.674-2.623-3.14
		c-0.014-1.028,0.391-1.934,1.215-2.714c0.822-0.779,2.057-1.172,3.701-1.175c1.619-0.002,2.779,0.329,3.473,0.994
		c0.695,0.665,1.047,1.402,1.059,2.214v0.047l-2.195,0.004l-0.002-0.047c-0.006-0.437-0.229-0.78-0.67-1.028
		c-0.443-0.249-1.029-0.372-1.758-0.371c-0.869,0.001-1.533,0.184-1.988,0.546c-0.457,0.363-0.682,0.811-0.676,1.34
		c0.006,0.406,0.16,0.735,0.463,0.988c0.303,0.252,0.811,0.479,1.521,0.681l1.055,0.29l0.762,0.221
		c1.062,0.304,1.725,0.517,1.986,0.641c0.264,0.124,0.527,0.283,0.795,0.478c0.369,0.28,0.645,0.618,0.826,1.017
		c0.18,0.396,0.273,0.859,0.281,1.39c0.016,1.232-0.412,2.269-1.287,3.112c-0.873,0.843-2.158,1.267-3.857,1.269
		c-1.076,0.001-1.971-0.157-2.686-0.476c-0.713-0.318-1.285-0.76-1.713-1.324s-0.648-1.216-0.658-1.957V297.383z"/>
	<path fill="#FFFFFF" d="M182.907,296.334l2.17-0.229l0.014,0.115c0.068,0.575-0.09,1.184-0.471,1.827
		c-0.381,0.645-0.924,1.161-1.629,1.548c-0.705,0.389-1.541,0.634-2.504,0.734c-1.951,0.205-3.531-0.276-4.742-1.442
		c-1.211-1.167-1.93-2.728-2.16-4.68c-0.236-2,0.129-3.717,1.094-5.148c0.967-1.431,2.334-2.239,4.102-2.426
		c0.971-0.103,1.877,0.02,2.715,0.362c0.838,0.344,1.541,0.942,2.105,1.798c0.566,0.854,0.943,2.087,1.135,3.699l0.084,0.721
		l-9.066,0.953c0.164,1.388,0.664,2.492,1.5,3.313c0.838,0.822,1.902,1.166,3.197,1.03c0.93-0.099,1.588-0.354,1.973-0.768
		c0.385-0.412,0.551-0.844,0.498-1.293L182.907,296.334z M175.698,292.524l6.852-0.72l-0.029-0.256
		c-0.072-0.605-0.283-1.176-0.635-1.716c-0.35-0.54-0.793-0.922-1.324-1.145c-0.533-0.222-1.133-0.298-1.799-0.229
		c-0.789,0.083-1.479,0.484-2.068,1.201C176.104,290.379,175.772,291.333,175.698,292.524z"/>
</g>
</svg>
