<?xml version="1.0" encoding="utf-8"?>
<!-- Generator: Adobe Illustrator 16.0.0, SVG Export Plug-In . SVG Version: 6.00 Build 0)  -->
<!DOCTYPE svg PUBLIC "-//W3C//DTD SVG 1.1//EN" "http://www.w3.org/Graphics/SVG/1.1/DTD/svg11.dtd">
<svg version="1.1" id="Layer_1" xmlns="http://www.w3.org/2000/svg" xmlns:xlink="http://www.w3.org/1999/xlink" x="0px" y="0px"
	 width="142.803px" height="114.05px" viewBox="0 0 142.803 114.05" enable-background="new 0 0 142.803 114.05"
	 xml:space="preserve">
<g opacity="0.1">
	<path fill="#010101" stroke="#010101" stroke-miterlimit="10" d="M61.795,0.678c1.688-0.094,3.378,0.282,4.691,2.909
		c1.312,2.627,2.364,5.423,0.281,7.506c-2.252,2.252-6.216,3.151-11.071,5.817c-4.785,2.627-13.323,8.914-16.7,13.886
		c-3.122,4.595-6.51,10.855-6.569,16.325c-0.093,8.726,2.628,12.479,4.692,15.387c1.567,2.209,5.348,6.568,16.606,9.945
		c6.846,2.053,10.01,8.467,10.884,11.354c0.938,3.096,3.238,9.646-4.222,19.703c-4.315,5.816-14.878,9.939-21.674,10.039
		c-6.474,0.094-19.873-3.799-29.086-15.951C0.809,85.965,0.903,73.392,0.528,67.012c-0.384-6.53,3.27-22.791,6.285-28.241
		c2.91-5.254,7.882-12.76,14.074-18.108C26.843,15.519,37.401,9.216,41.53,7.339C45.749,5.421,59.039,0.831,61.795,0.678z"/>
	<path fill="#010101" stroke="#010101" stroke-miterlimit="10" d="M136.15,0.513c1.689-0.094,3.378,0.281,4.692,2.908
		c1.313,2.627,2.364,5.423,0.281,7.506c-2.252,2.251-6.217,3.151-11.071,5.817c-4.785,2.627-13.323,8.914-16.701,13.886
		c-3.12,4.595-6.508,10.854-6.567,16.325c-0.094,8.726,2.628,12.479,4.691,15.387c1.567,2.209,5.348,6.567,16.607,9.944
		c6.844,2.055,10.009,8.469,10.883,11.354c0.938,3.097,3.238,9.648-4.223,19.703c-4.315,5.818-14.877,9.941-21.673,10.039
		c-6.475,0.095-19.873-3.798-29.085-15.949c-8.819-11.635-8.727-24.207-9.101-30.588c-0.386-6.529,3.269-22.79,6.285-28.241
		c2.908-5.254,7.882-12.76,14.074-18.108c5.956-5.143,16.513-11.447,20.641-13.323C120.104,5.256,133.394,0.666,136.15,0.513z"/>
</g>
</svg>
